<svg width="66" height="66" viewBox="0 0 66 66" fill="none" xmlns="http://www.w3.org/2000/svg">
<path d="M17.0363 3.2728C19.848 1.13956 23.2832 -0.00985226 26.8125 0.00167592C28.031 -0.0245086 29.2365 0.256504 30.3179 0.818806C31.3992 1.38111 32.3216 2.2066 33 3.21918C33.6784 2.2066 34.6008 1.38111 35.6821 0.818806C36.7635 0.256504 37.969 -0.0245086 39.1875 0.00167592C42.7168 -0.00985226 46.152 1.13956 48.9637 3.2728C51.1294 4.9558 52.8 7.28643 53.3899 10.1038C54.7429 10.2069 55.9804 10.7679 57.0199 11.6136C58.5956 12.8923 59.7424 14.8104 60.4643 16.8399C61.5945 19.9956 61.8997 24.0174 60.7282 27.4412C61.0252 27.5814 61.3167 27.7464 61.6027 27.9362C62.7371 28.6911 63.5993 29.7718 64.2345 31.0464C65.4844 33.542 66 37.0236 66 41.2517C66 45.9583 64.2056 49.118 61.9286 51.0692C60.6679 52.1465 59.1825 52.9286 57.5809 53.3586C57.1684 55.6603 56.0134 58.3251 54.2025 60.5856C51.8512 63.5349 48.2048 66.0017 43.3125 66.0017C39.435 66.0017 36.3495 63.8567 34.3447 61.7529C33.8635 61.2524 33.4144 60.7219 33 60.1648C32.5856 60.7219 32.1365 61.2524 31.6552 61.7529C29.6505 63.8567 26.5691 66.0017 22.6875 66.0017C17.7952 66.0017 14.1529 63.5349 11.7975 60.5856C10.1057 58.4838 8.94667 56.0045 8.41912 53.3586C6.81751 52.9286 5.33211 52.1465 4.07137 51.0692C1.79438 49.118 0 45.9542 0 41.2517C0 37.0236 0.51975 33.5379 1.7655 31.0464C2.35262 29.7943 3.26059 28.7198 4.39725 27.9321C4.67863 27.7523 4.97067 27.5897 5.27175 27.4453C4.10025 24.0133 4.4055 19.9956 5.53575 16.8399C6.25763 14.8104 7.40438 12.8923 8.98013 11.6136C10.0196 10.7679 11.2571 10.2111 12.6101 10.1038C13.2041 7.28643 14.8706 4.9558 17.0363 3.2728ZM30.9375 10.2729L30.9293 10.0667C30.871 8.99098 30.657 7.92943 30.294 6.91518C30.0406 6.14744 29.6029 5.45347 29.0194 4.89393C28.4101 4.36337 27.6195 4.08851 26.8125 4.12668C24.2007 4.1147 21.6567 4.95787 19.569 6.52743C17.655 8.01655 16.5 10.0337 16.5 12.3767C16.4998 12.7033 16.4219 13.0252 16.2729 13.3159C16.124 13.6066 15.9081 13.8577 15.643 14.0486C15.378 14.2395 15.0714 14.3648 14.7485 14.414C14.4256 14.4633 14.0956 14.4351 13.7858 14.3319C13.0103 14.0762 12.3173 14.2206 11.5789 14.8146C10.7704 15.4746 9.9825 16.6461 9.41737 18.2259C8.2665 21.4517 8.38612 25.358 9.966 27.734C10.1916 28.0724 10.3122 28.47 10.3125 28.8767H13.4062C15.8678 28.8767 18.2285 29.8545 19.9691 31.5951C21.7097 33.3357 22.6875 35.6964 22.6875 38.1579V39.5398C24.0636 40.0263 25.2235 40.9837 25.962 42.2427C26.7005 43.5016 26.9702 44.9812 26.7234 46.4198C26.4766 47.8583 25.7291 49.1633 24.6132 50.1041C23.4972 51.0449 22.0846 51.5609 20.625 51.5609C19.1654 51.5609 17.7528 51.0449 16.6368 50.1041C15.5209 49.1633 14.7734 47.8583 14.5266 46.4198C14.2798 44.9812 14.5495 43.5016 15.288 42.2427C16.0265 40.9837 17.1864 40.0263 18.5625 39.5398V38.1579C18.5625 35.3117 16.2525 33.0017 13.4062 33.0017H6.1875C5.94092 33.0012 5.69642 32.9565 5.46563 32.8697L5.45325 32.8944C4.6365 34.5238 4.125 37.2298 4.125 41.2517C4.125 44.7951 5.42438 46.7915 6.75675 47.9342C8.18812 49.1634 9.77625 49.5017 10.3125 49.5017C10.8595 49.5017 11.3841 49.719 11.7709 50.1058C12.1577 50.4926 12.375 51.0172 12.375 51.5642C12.375 53.0822 13.2 55.7346 15.015 58.0116C16.7846 60.2184 19.3298 61.8767 22.6875 61.8767C24.9975 61.8767 27.0682 60.5856 28.6687 58.9067C29.4566 58.0817 30.0713 57.2278 30.4714 56.5266C30.6531 56.2153 30.809 55.8897 30.9375 55.5531V22.6892H26.4619C25.9753 24.0653 25.018 25.2251 23.759 25.9637C22.5 26.7022 21.0205 26.9719 19.5819 26.7251C18.1433 26.4782 16.8383 25.7308 15.8975 24.6148C14.9567 23.4989 14.4407 22.0863 14.4407 20.6267C14.4407 19.1671 14.9567 17.7545 15.8975 16.6385C16.8383 15.5225 18.1433 14.7751 19.5819 14.5283C21.0205 14.2815 22.5 14.5512 23.759 15.2897C25.018 16.0282 25.9753 17.188 26.4619 18.5642H30.9375V10.2729ZM35.0625 51.5601V55.5489L35.112 55.6851C35.189 55.8913 35.3265 56.1704 35.5245 56.5224C35.9329 57.2237 36.5434 58.0775 37.3271 58.9025C38.9317 60.5814 41.0066 61.8726 43.3125 61.8726C46.6702 61.8726 49.2154 60.2143 50.985 58.0074C52.8 55.7304 53.625 53.078 53.625 51.5601C53.625 51.013 53.8423 50.4884 54.2291 50.1016C54.6159 49.7149 55.1405 49.4976 55.6875 49.4976C56.2238 49.4976 57.8119 49.1593 59.2432 47.9301C60.5756 46.7874 61.875 44.7909 61.875 41.2476C61.875 37.2257 61.3594 34.5238 60.5467 32.8903C60.2788 32.2796 59.8513 31.7524 59.3092 31.364C58.8445 31.0679 58.3008 30.9197 57.75 30.9392C57.3769 30.939 57.0109 30.8376 56.6909 30.6458C56.3709 30.4541 56.1089 30.1791 55.9328 29.8502C55.7567 29.5213 55.6731 29.1508 55.6909 28.7781C55.7087 28.4055 55.8273 28.0446 56.034 27.734C57.618 25.358 57.7335 21.4517 56.5826 18.2259C56.0175 16.6461 55.2296 15.4704 54.4211 14.8146C53.6828 14.2206 52.9897 14.0721 52.2142 14.3319C51.9044 14.4351 51.5744 14.4633 51.2515 14.414C50.9286 14.3648 50.622 14.2395 50.357 14.0486C50.0919 13.8577 49.876 13.6066 49.7271 13.3159C49.5781 13.0252 49.5002 12.7033 49.5 12.3767C49.5 10.0337 48.345 8.01655 46.4269 6.52743C44.3403 4.95872 41.7979 4.1156 39.1875 4.12668C38.3805 4.08851 37.5899 4.36337 36.9806 4.89393C36.3956 5.45302 35.9565 6.14703 35.7019 6.91518C35.3106 7.99305 35.0948 9.12669 35.0625 10.2729V47.4392H38.1562C41.0025 47.4392 43.3125 45.1292 43.3125 42.2829V34.7136C41.9364 34.227 40.7765 33.2697 40.038 32.0107C39.2995 30.7517 39.0298 29.2722 39.2766 27.8336C39.5234 26.395 40.2709 25.09 41.3868 24.1492C42.5028 23.2084 43.9154 22.6924 45.375 22.6924C46.8346 22.6924 48.2472 23.2084 49.3632 24.1492C50.4791 25.09 51.2266 26.395 51.4734 27.8336C51.7202 29.2722 51.4505 30.7517 50.712 32.0107C49.9735 33.2697 48.8136 34.227 47.4375 34.7136V42.2829C47.4375 44.7445 46.4597 47.1052 44.7191 48.8458C42.9785 50.5863 40.6178 51.5642 38.1562 51.5642L35.0625 51.5601ZM18.5625 20.6267C18.5625 21.1737 18.7798 21.6983 19.1666 22.0851C19.5534 22.4719 20.078 22.6892 20.625 22.6892C21.172 22.6892 21.6966 22.4719 22.0834 22.0851C22.4702 21.6983 22.6875 21.1737 22.6875 20.6267C22.6875 20.0797 22.4702 19.5551 22.0834 19.1683C21.6966 18.7815 21.172 18.5642 20.625 18.5642C20.078 18.5642 19.5534 18.7815 19.1666 19.1683C18.7798 19.5551 18.5625 20.0797 18.5625 20.6267ZM45.375 30.9392C45.922 30.9392 46.4466 30.7219 46.8334 30.3351C47.2202 29.9483 47.4375 29.4237 47.4375 28.8767C47.4375 28.3297 47.2202 27.8051 46.8334 27.4183C46.4466 27.0315 45.922 26.8142 45.375 26.8142C44.828 26.8142 44.3034 27.0315 43.9166 27.4183C43.5298 27.8051 43.3125 28.3297 43.3125 28.8767C43.3125 29.4237 43.5298 29.9483 43.9166 30.3351C44.3034 30.7219 44.828 30.9392 45.375 30.9392ZM20.625 43.3142C20.078 43.3142 19.5534 43.5315 19.1666 43.9183C18.7798 44.3051 18.5625 44.8297 18.5625 45.3767C18.5625 45.9237 18.7798 46.4483 19.1666 46.8351C19.5534 47.2219 20.078 47.4392 20.625 47.4392C21.172 47.4392 21.6966 47.2219 22.0834 46.8351C22.4702 46.4483 22.6875 45.9237 22.6875 45.3767C22.6875 44.8297 22.4702 44.3051 22.0834 43.9183C21.6966 43.5315 21.172 43.3142 20.625 43.3142Z" fill="#F2F9F9"/>
</svg>
