<svg width="70" height="69" viewBox="0 0 70 69" fill="none" xmlns="http://www.w3.org/2000/svg">
<path d="M20 4.21739L23.6709 8H26.3291L30 4.21739L27.8481 2H22.1519L20 4.21739Z" stroke="#F3FAF7" stroke-width="3" stroke-linejoin="round"/>
<path d="M39.4487 12.5874C35.1801 9.43924 29.9722 7.82762 24.6716 8.01461C19.371 8.20159 14.2895 10.1762 10.2534 13.6173C6.21734 17.0584 3.46402 21.7637 2.44117 26.968C1.41831 32.1724 2.18608 37.5697 4.61962 42.2823C7.05316 46.995 11.0094 50.7458 15.8449 52.925C20.6805 55.1041 26.111 55.5834 31.2535 54.2848C36.396 52.9863 40.9479 49.9863 44.1693 45.7727C47.3906 41.5591 49.0918 36.3797 48.9962 31.0767L42.361 31.1962C42.4295 35.0017 41.2087 38.7184 38.8971 41.7421C36.5855 44.7658 33.319 46.9186 29.6287 47.8504C25.9385 48.7823 22.0415 48.4384 18.5715 46.8746C15.1015 45.3108 12.2625 42.6192 10.5162 39.2374C8.76988 35.8556 8.21893 31.9825 8.95293 28.2478C9.68693 24.5132 11.6627 21.1367 14.559 18.6673C17.4553 16.198 21.1018 14.781 24.9055 14.6468C28.7092 14.5126 32.4465 15.6691 35.5096 17.9283L39.4487 12.5874Z" stroke="#F3FAF7" stroke-width="3" stroke-linejoin="round"/>
<path d="M30.0379 62.6141C34.384 65.6578 39.6432 67.1944 44.982 66.9803C50.3209 66.7662 55.4341 64.8138 59.5115 61.4322C63.5889 58.0507 66.3972 53.4336 67.4914 48.3125C68.5856 43.1913 67.9032 37.8591 65.5523 33.1607C63.2014 28.4623 59.3164 24.6664 54.513 22.3746C49.7096 20.0827 44.2624 19.426 39.0347 20.5084C33.807 21.5909 29.0977 24.3506 25.653 28.3503C22.2083 32.3499 20.2252 37.3608 20.0181 42.5889L26.7905 42.8462C26.9392 39.0945 28.3622 35.4987 30.8341 32.6285C33.306 29.7583 36.6855 27.778 40.4369 27.0012C44.1883 26.2244 48.0972 26.6957 51.5442 28.3403C54.9911 29.985 57.779 32.7089 59.466 36.0805C61.153 39.4521 61.6427 43.2785 60.8575 46.9534C60.0723 50.6284 58.057 53.9416 55.1311 56.3682C52.2052 58.7948 48.5359 60.1959 44.7047 60.3495C40.8735 60.5032 37.0996 59.4005 33.9808 57.2163L30.0379 62.6141Z" stroke="#F3FAF7" stroke-width="3" stroke-linejoin="round"/>
</svg>
