<svg width="95" height="73" viewBox="0 0 95 73" fill="none" xmlns="http://www.w3.org/2000/svg">
<path d="M15 35.8002C11.6 35.8002 8.6 34.2002 6 31.0002C3.4 27.8002 2.1 23.8002 2.1 19.0002C2.1 14.0002 4 9.7002 7.8 6.1002C11.6 2.5002 16.3 0.700195 21.9 0.700195C27.7 0.700195 32.7 3.0002 36.9 7.6002C41.3 12.0002 43.5 18.1002 43.5 25.9002C43.5 38.7002 40.2 49.7002 33.6 58.9002C27 67.9002 19.1 72.4002 9.9 72.4002C3.3 72.4002 0 70.0002 0 65.2002C6.6 63.6002 12 60.1002 16.2 54.7002C20.6 49.1002 22.8 42.4002 22.8 34.6002C21.2 35.4002 18.6 35.8002 15 35.8002ZM65.7 35.8002C62.3 35.8002 59.3 34.2002 56.7 31.0002C54.1 27.8002 52.8 23.8002 52.8 19.0002C52.8 14.0002 54.7 9.7002 58.5 6.1002C62.3 2.5002 67 0.700195 72.6 0.700195C78.4 0.700195 83.4 3.0002 87.6 7.6002C92 12.0002 94.2 18.1002 94.2 25.9002C94.2 38.7002 90.9 49.7002 84.3 58.9002C77.7 67.9002 69.8 72.4002 60.6 72.4002C54 72.4002 50.7 70.0002 50.7 65.2002C57.3 63.6002 62.7 60.1002 66.9 54.7002C71.3 49.1002 73.5 42.4002 73.5 34.6002C71.9 35.4002 69.3 35.8002 65.7 35.8002Z" fill="#D4C5E2"/>
</svg>
