<svg width="46" height="43" viewBox="0 0 46 43" fill="none" xmlns="http://www.w3.org/2000/svg">
<path d="M29.4759 9.47363C29.2064 9.74311 28.8408 9.89451 28.4596 9.89451C28.0785 9.89451 27.7129 9.74311 27.4433 9.47363C27.0493 9.07809 26.5807 8.76456 26.0648 8.55114C25.5489 8.33771 24.9958 8.22863 24.4375 8.23019C23.2587 8.23019 22.2051 8.70313 21.4317 9.47363C21.2982 9.60709 21.1398 9.71296 20.9654 9.78519C20.791 9.85742 20.6041 9.8946 20.4154 9.8946C20.0342 9.8946 19.6686 9.74317 19.3991 9.47363C19.2656 9.34016 19.1597 9.18172 19.0875 9.00734C19.0153 8.83296 18.9781 8.64606 18.9781 8.45731C18.9781 8.07612 19.1295 7.71054 19.3991 7.441C20.0605 6.77912 20.846 6.2542 21.7105 5.89629C22.5751 5.53838 23.5018 5.3545 24.4375 5.35519C25.3732 5.3545 26.2999 5.53838 27.1645 5.89629C28.029 6.2542 28.8145 6.77912 29.4759 7.441C29.7454 7.71057 29.8968 8.07614 29.8968 8.45731C29.8968 8.83849 29.7454 9.20405 29.4759 9.47363ZM12.7851 8.10081C11.5153 8.84262 10.3667 9.77491 9.37969 10.8651L9.37825 10.8666C8.38783 11.9608 7.57182 13.201 6.95894 14.5437C6.32975 15.9215 5.92454 17.3909 5.75863 18.8964C5.73786 19.0841 5.75426 19.274 5.80688 19.4553C5.8595 19.6366 5.94732 19.8058 6.06532 19.9531C6.18332 20.1005 6.32919 20.2232 6.4946 20.3142C6.66002 20.4052 6.84173 20.4627 7.02938 20.4834C7.21702 20.5042 7.40691 20.4878 7.58822 20.4352C7.76952 20.3826 7.93869 20.2947 8.08606 20.1767C8.23342 20.0587 8.3561 19.9129 8.4471 19.7475C8.53809 19.582 8.59561 19.4003 8.61637 19.2127C8.75122 18.0109 9.0748 16.8378 9.57519 15.7368C10.5601 13.5796 12.1879 11.7796 14.2356 10.5834C14.3986 10.4881 14.5412 10.3617 14.6554 10.2114C14.7695 10.061 14.8529 9.88961 14.9009 9.70701C14.9488 9.5244 14.9603 9.33414 14.9347 9.1471C14.9091 8.96005 14.8469 8.77988 14.7516 8.61687C14.6564 8.45387 14.53 8.31121 14.3796 8.19706C14.2292 8.08291 14.0579 7.99949 13.8753 7.95157C13.5065 7.85479 13.1143 7.90847 12.7851 8.10081ZM34.5 24.1562C34.5 23.775 34.6515 23.4094 34.921 23.1398C35.1906 22.8702 35.5563 22.7188 35.9375 22.7188C36.3187 22.7188 36.6844 22.8702 36.954 23.1398C37.2236 23.4094 37.375 23.775 37.375 24.1562C37.373 25.4532 36.8694 26.699 35.9697 27.6331C35.07 28.5671 33.8438 29.1169 32.5479 29.1674C32.8684 29.8272 33.0625 30.5603 33.0625 31.3437C33.0625 31.725 32.9111 32.0906 32.6415 32.3602C32.3719 32.6298 32.0062 32.7812 31.625 32.7812C31.2438 32.7812 30.8781 32.6298 30.6085 32.3602C30.339 32.0906 30.1875 31.725 30.1875 31.3437C30.1875 30.7719 29.9603 30.2234 29.5559 29.819C29.1516 29.4147 28.6031 29.1875 28.0312 29.1875H19.1446C18.7634 29.1875 18.3977 29.036 18.1282 28.7665C17.8586 28.4969 17.7071 28.1312 17.7071 27.75C17.7071 27.3688 17.8586 27.0031 18.1282 26.7335C18.3977 26.464 18.7634 26.3125 19.1446 26.3125H22.2812C22.8528 26.3114 23.4006 26.0838 23.8047 25.6797C24.2088 25.2756 24.4364 24.7278 24.4375 24.1562C24.4375 23.775 24.5889 23.4094 24.8585 23.1398C25.1281 22.8702 25.4938 22.7188 25.875 22.7188C26.2562 22.7188 26.6219 22.8702 26.8915 23.1398C27.161 23.4094 27.3125 23.775 27.3125 24.1562C27.3125 24.9311 27.1227 25.657 26.8094 26.3125H32.3438C32.9153 26.3114 33.4631 26.0838 33.8672 25.6797C34.2713 25.2756 34.4989 24.7278 34.5 24.1562Z" fill="#26282B"/>
<path d="M46 23.0221C46 22.1193 45.9353 21.2453 45.8361 20.3972C44.5323 9.15881 35.0002 0.440375 23.4154 0.4375H21.6444C9.68875 0.438938 0.0014375 10.1262 0 22.0819C0 23.2038 0.220973 24.3147 0.650302 25.3512C1.07963 26.3877 1.70891 27.3295 2.50221 28.1228C4.10434 29.7249 6.2773 30.625 8.54306 30.625H10.327C10.8105 32.6701 11.9698 34.4923 13.6175 35.7966C15.2652 37.101 17.3048 37.8113 19.4062 37.8125H29.6182L34.0975 42.2917C34.2483 42.4423 34.4403 42.5449 34.6493 42.5864C34.8583 42.6279 35.0749 42.6066 35.2718 42.525C35.4687 42.4435 35.637 42.3055 35.7555 42.1284C35.874 41.9512 35.9373 41.743 35.9375 41.5299V37.6932C38.147 37.4177 40.2288 36.5059 41.9296 35.0688C43.6303 33.6317 44.8767 31.7312 45.517 29.5986C45.7226 28.9115 45.8404 28.187 45.9152 27.4496L45.9195 27.4381C45.9598 27.3058 46 27.175 46 27.0312C45.999 26.9431 45.9952 26.8559 45.9885 26.7696L45.9784 26.6043C45.9794 26.5583 45.9828 26.5138 45.9885 26.4706C45.9962 26.4179 46 26.3652 46 26.3125V23.0221ZM42.7627 28.7778C42.232 30.5572 41.1412 32.1177 39.6525 33.2275C38.1639 34.3373 36.3568 34.937 34.5 34.9375H19.4062C17.7932 34.9367 16.2387 34.3333 15.0476 33.2456C13.8564 32.1579 13.1147 30.6644 12.9677 29.0581L12.9591 28.9661C13.0071 27.0991 13.7838 25.325 15.1229 24.0232C16.462 22.7214 18.2574 21.9953 20.125 22C20.5062 22 20.8719 21.8485 21.1415 21.579C21.411 21.3094 21.5625 20.9437 21.5625 20.5625C21.5625 20.1813 21.411 19.8156 21.1415 19.546C20.8719 19.2765 20.5062 19.125 20.125 19.125C18.4369 19.1249 16.7759 19.5496 15.295 20.3598C15.0124 19.7247 14.6169 19.1461 14.1278 18.6521C13.8582 18.3825 13.4926 18.2311 13.1114 18.2311C12.7302 18.2311 12.3647 18.3825 12.0951 18.6521C11.8256 18.9216 11.6742 19.2872 11.6742 19.6684C11.6742 20.0496 11.8256 20.4151 12.0951 20.6847C12.5034 21.0944 12.7808 21.6191 12.8857 22.207C11.4249 23.7255 10.4776 25.6643 10.1775 27.75H8.54306C7.79835 27.7512 7.06075 27.6051 6.3727 27.3201C5.68465 27.0352 5.05972 26.617 4.53387 26.0897C4.00697 25.5639 3.58916 24.9391 3.30448 24.2514C3.01979 23.5636 2.87384 22.8263 2.875 22.0819C2.875 16.894 4.97375 12.2106 8.372 8.8095C10.1123 7.06299 12.181 5.67811 14.4589 4.73468C16.7368 3.79125 19.1789 3.3079 21.6444 3.3125H23.4154C33.0323 3.30962 41.0191 10.2125 42.7513 19.3248C41.1661 17.7789 39.1434 16.7585 36.9581 16.4024C37.6812 15.077 38.0938 13.5547 38.0938 11.9375C38.0938 11.5563 37.9423 11.1906 37.6727 10.921C37.4031 10.6515 37.0375 10.5 36.6562 10.5C36.275 10.5 35.9094 10.6515 35.6398 10.921C35.3702 11.1906 35.2188 11.5563 35.2188 11.9375C35.2203 12.7872 35.0537 13.6289 34.7286 14.4139C34.4034 15.199 33.9261 15.9119 33.3241 16.5116C32.7244 17.1136 32.0115 17.5909 31.2264 17.9161C30.4414 18.2412 29.5997 18.4078 28.75 18.4062C28.3688 18.4062 28.0031 18.5577 27.7335 18.8273C27.4639 19.0969 27.3125 19.4625 27.3125 19.8438C27.3125 20.225 27.4639 20.5906 27.7335 20.8602C28.0031 21.1298 28.3688 21.2812 28.75 21.2812C30.9724 21.2826 33.1218 20.4881 34.8091 19.0416L34.8321 19.0488C34.9569 19.0918 35.087 19.1175 35.2188 19.125C37.4066 19.125 39.3746 20.0076 40.8092 21.4408C42.1861 22.8191 43.0035 24.6587 43.1034 26.6043C43.0831 27.3404 42.9686 28.0708 42.7627 28.7778Z" fill="#26282B"/>
</svg>
