<svg width="42" height="46" viewBox="0 0 42 46" fill="none" xmlns="http://www.w3.org/2000/svg">
<path d="M21 0C32.5983 0 42 9.4017 42 21C42 32.5983 32.5983 42 21 42C9.4017 42 0 32.5983 0 21C0 9.4017 9.4017 0 21 0ZM21 4.2C16.5444 4.2 12.2712 5.97 9.12061 9.12061C5.97 12.2712 4.2 16.5444 4.2 21C4.2 25.4556 5.97 29.7288 9.12061 32.8794C12.2712 36.03 16.5444 37.8 21 37.8C25.4556 37.8 29.7288 36.03 32.8794 32.8794C36.03 29.7288 37.8 25.4556 37.8 21C37.8 16.5444 36.03 12.2712 32.8794 9.12061C29.7288 5.97 25.4556 4.2 21 4.2ZM21 8.4C21.5144 8.40007 22.0108 8.58891 22.3952 8.9307C22.7796 9.2725 23.0251 9.74347 23.0853 10.2543L23.1 10.5V20.1306L28.7847 25.8153C29.1613 26.1932 29.38 26.7003 29.3963 27.2336C29.4126 27.7669 29.2252 28.2864 28.8724 28.6866C28.5195 29.0868 28.0275 29.3376 27.4964 29.3882C26.9653 29.4388 26.4348 29.2854 26.0127 28.959L25.8153 28.7847L19.5153 22.4847C19.1889 22.158 18.9793 21.7329 18.9189 21.2751L18.9 21V10.5C18.9 9.94304 19.1212 9.4089 19.5151 9.01508C19.9089 8.62125 20.443 8.4 21 8.4Z" fill="black"/>
</svg>
