<svg width="53" height="41" viewBox="0 0 53 41" fill="none" xmlns="http://www.w3.org/2000/svg">
<path d="M50.3847 23.8568C49.8124 23.4158 49.1564 23.0959 48.4565 22.9165C47.7567 22.7371 47.0276 22.702 46.3137 22.8134C50.4219 18.6659 52.5 14.5425 52.5 10.5C52.5 4.70965 47.8428 -3.88901e-05 42.1181 -3.88901e-05C40.5991 -0.00957788 39.0965 0.313484 37.7156 0.946466C36.3348 1.57945 35.1092 2.50701 34.125 3.66402C33.1408 2.50701 31.9152 1.57945 30.5344 0.946466C29.1535 0.313484 27.6509 -0.00957788 26.1319 -3.88901e-05C20.4072 -3.88901e-05 15.75 4.70965 15.75 10.5C15.75 12.9062 16.4587 15.2446 17.9506 17.7187C16.7288 18.0283 15.6137 18.6633 14.7241 19.5562L9.77594 24.5H3.5C2.57174 24.5 1.6815 24.8687 1.02513 25.5251C0.368749 26.1815 0 27.0717 0 28L0 36.75C0 37.6782 0.368749 38.5685 1.02513 39.2248C1.6815 39.8812 2.57174 40.25 3.5 40.25H26.25C26.3931 40.2499 26.5356 40.2322 26.6744 40.1975L40.6744 36.6975C40.7636 36.6762 40.8507 36.6469 40.9347 36.61L49.4375 32.9918L49.5337 32.9481C50.3509 32.5397 51.0507 31.9301 51.5672 31.1766C52.0836 30.423 52.3997 29.5504 52.4857 28.641C52.5717 27.7315 52.4248 26.8151 52.0587 25.9781C51.6927 25.1411 51.1196 24.4111 50.3934 23.8568H50.3847ZM26.1319 3.49996C27.4873 3.48012 28.8178 3.865 29.9533 4.60537C31.0888 5.34575 31.9777 6.40797 32.5062 7.65621C32.6381 7.97718 32.8624 8.25171 33.1506 8.44491C33.4388 8.63811 33.778 8.74127 34.125 8.74127C34.472 8.74127 34.8112 8.63811 35.0994 8.44491C35.3876 8.25171 35.6119 7.97718 35.7437 7.65621C36.2723 6.40797 37.1612 5.34575 38.2967 4.60537C39.4322 3.865 40.7627 3.48012 42.1181 3.49996C45.8478 3.49996 49 6.70465 49 10.5C49 14.7678 45.5459 19.5956 39.0119 24.4781L36.5859 25.0359C36.7989 24.1364 36.8054 23.2003 36.6052 22.2979C36.4049 21.3955 36.003 20.5501 35.4295 19.8251C34.856 19.1001 34.1259 18.5143 33.2938 18.1117C32.4618 17.709 31.5494 17.4999 30.625 17.5H22.0237C20.1359 14.9537 19.25 12.7137 19.25 10.5C19.25 6.70465 22.4022 3.49996 26.1319 3.49996ZM3.5 28H8.75V36.75H3.5V28ZM48.0003 29.7959L39.6878 33.3353L26.0312 36.75H12.25V26.974L17.2003 22.0259C17.5241 21.6995 17.9096 21.4407 18.3343 21.2646C18.7591 21.0884 19.2146 20.9985 19.6744 21H30.625C31.3212 21 31.9889 21.2765 32.4812 21.7688C32.9734 22.2611 33.25 22.9288 33.25 23.625C33.25 24.3212 32.9734 24.9888 32.4812 25.4811C31.9889 25.9734 31.3212 26.25 30.625 26.25H24.5C24.0359 26.25 23.5907 26.4343 23.2626 26.7625C22.9344 27.0907 22.75 27.5358 22.75 28C22.75 28.4641 22.9344 28.9092 23.2626 29.2374C23.5907 29.5656 24.0359 29.75 24.5 29.75H31.5C31.6317 29.7496 31.763 29.735 31.8916 29.7062L46.5478 26.3353L46.6156 26.3178C47.063 26.1936 47.5406 26.2392 47.9563 26.4459C48.3721 26.6526 48.6968 27.0058 48.8678 27.4375C49.0389 27.8692 49.0442 28.3488 48.8828 28.7842C48.7215 29.2196 48.4048 29.58 47.9937 29.7959H48.0003Z" fill="#26282B"/>
</svg>
