<svg width="44" height="35" viewBox="0 0 44 35" fill="none" xmlns="http://www.w3.org/2000/svg">
<path d="M43.496 1.60522C43.4755 1.25355 43.3265 0.921657 43.0774 0.672561C42.8283 0.423466 42.4964 0.274509 42.1448 0.253972C32.8441 -0.28509 25.3763 2.54319 22.1671 7.84038C20.0468 11.3425 20.0504 15.5957 22.1384 19.653C20.9497 21.0677 20.0811 22.7227 19.5922 24.5046L16.6687 21.5703C18.0738 18.636 18.0199 15.5777 16.489 13.0369C14.1171 9.12155 8.64203 7.0228 1.84446 7.42171C1.49278 7.44224 1.16089 7.5912 0.911795 7.8403C0.662699 8.08939 0.513743 8.42128 0.493206 8.77296C0.0925026 15.5705 2.19305 21.0456 6.10844 23.4175C7.40043 24.2071 8.88522 24.6249 10.3994 24.625C11.869 24.6068 13.3158 24.2586 14.6328 23.6062L19.125 28.0983V33.25C19.125 33.6312 19.2765 33.9969 19.546 34.2665C19.8156 34.536 20.1813 34.6875 20.5625 34.6875C20.9438 34.6875 21.3094 34.536 21.579 34.2665C21.8486 33.9969 22 33.6312 22 33.25V27.951C21.9935 25.6641 22.7717 23.4442 24.2048 21.6619C26.0536 22.6282 28.1042 23.1453 30.1902 23.1713C32.2069 23.1778 34.1863 22.6269 35.9096 21.5793C41.2068 18.3737 44.0423 10.9058 43.496 1.60522ZM7.59086 20.9594C4.83446 19.2901 3.27477 15.3387 3.3125 10.25C8.40125 10.2069 12.3526 11.7719 14.0219 14.5283C14.8934 15.9658 15.0353 17.6423 14.4639 19.3691L10.0777 14.983C9.80596 14.7248 9.44407 14.5829 9.06923 14.5877C8.69438 14.5925 8.33624 14.7436 8.07116 15.0086C7.80609 15.2737 7.65505 15.6319 7.65025 16.0067C7.64545 16.3816 7.78727 16.7434 8.04547 17.0152L12.4316 21.4014C10.7048 21.9728 9.03016 21.8308 7.59086 20.9594ZM34.42 19.123C32.0122 20.5802 29.1821 20.6916 26.3071 19.4823L35.9545 9.83311C36.2127 9.56134 36.3546 9.19945 36.3498 8.8246C36.345 8.44976 36.1939 8.09161 35.9288 7.82654C35.6638 7.56146 35.3056 7.41042 34.9308 7.40562C34.5559 7.40082 34.194 7.54264 33.9223 7.80085L24.273 17.4375C23.0584 14.5625 23.168 11.7306 24.6324 9.3246C27.1373 5.19178 33.0777 2.88819 40.6839 3.06608C40.8564 10.6705 38.5564 16.6181 34.42 19.123Z" fill="#26282B"/>
</svg>
