<svg width="40" height="39" viewBox="0 0 40 39" fill="none" xmlns="http://www.w3.org/2000/svg">
<path d="M25.3333 39H21.3333C20.6261 39 19.9478 38.7166 19.4477 38.2122C18.9476 37.7078 18.6667 37.0237 18.6667 36.3103V29.5862H21.3333V36.3103H25.3333V29.5862H28V24.2069C28 23.8502 27.8595 23.5082 27.6095 23.256C27.3594 23.0038 27.0203 22.8621 26.6667 22.8621H15.04L12.3733 14.7931H4C3.64638 14.7931 3.30724 14.9348 3.05719 15.187C2.80714 15.4392 2.66667 15.7813 2.66667 16.1379V24.2069H5.33333V36.3103H10.6667V26.8966H13.3333V36.3103C13.3333 37.0237 13.0524 37.7078 12.5523 38.2122C12.0522 38.7166 11.3739 39 10.6667 39H5.33333C4.62609 39 3.94781 38.7166 3.44772 38.2122C2.94762 37.7078 2.66667 37.0237 2.66667 36.3103V26.8966C1.95942 26.8966 1.28115 26.6132 0.781049 26.1088C0.280952 25.6044 0 24.9202 0 24.2069V16.1379C0.00105895 15.0683 0.422827 14.0427 1.17274 13.2863C1.92266 12.5299 2.93946 12.1045 4 12.1035H12.3733C12.9328 12.1035 13.4782 12.2811 13.9321 12.611C14.386 12.9409 14.7256 13.4065 14.9027 13.9418L16.96 20.1724H26.6667C27.7272 20.1735 28.744 20.5989 29.4939 21.3553C30.2438 22.1116 30.6656 23.1372 30.6667 24.2069V29.5862C30.6667 30.2995 30.3857 30.9837 29.8856 31.4881C29.3855 31.9925 28.7072 32.2759 28 32.2759V36.3103C28 37.0237 27.719 37.7078 27.219 38.2122C26.7189 38.7166 26.0406 39 25.3333 39ZM36 39H33.3333V24.2069H37.3333V16.1379C37.3333 15.7813 37.1929 15.4392 36.9428 15.187C36.6928 14.9348 36.3536 14.7931 36 14.7931H30.6667V12.1035H36C37.0605 12.1045 38.0773 12.5299 38.8273 13.2863C39.5772 14.0427 39.9989 15.0683 40 16.1379V24.2069C40 24.9202 39.719 25.6044 39.219 26.1088C38.7189 26.6132 38.0406 26.8966 37.3333 26.8966H36V39ZM8 10.7586C6.94517 10.7586 5.91402 10.4431 5.03696 9.85205C4.1599 9.26096 3.47631 8.42083 3.07264 7.43789C2.66898 6.45494 2.56336 5.37335 2.76915 4.32986C2.97493 3.28638 3.48288 2.32788 4.22876 1.57557C4.97464 0.823256 5.92495 0.310926 6.95952 0.103364C7.99408 -0.104198 9.06644 0.00233075 10.041 0.409478C11.0155 0.816625 11.8485 1.50611 12.4345 2.39073C13.0205 3.27535 13.3333 4.31539 13.3333 5.37931C13.3316 6.80545 12.7691 8.17266 11.7693 9.18109C10.7695 10.1895 9.41395 10.7568 8 10.7586ZM8 2.68966C7.47258 2.68966 6.95701 2.8474 6.51848 3.14295C6.07995 3.43849 5.73815 3.85856 5.53632 4.35003C5.33449 4.8415 5.28168 5.3823 5.38457 5.90404C5.48747 6.42578 5.74144 6.90503 6.11438 7.28119C6.48732 7.65734 6.96248 7.91351 7.47976 8.01729C7.99704 8.12107 8.53322 8.0678 9.02049 7.86423C9.50776 7.66066 9.92424 7.31592 10.2173 6.8736C10.5103 6.43129 10.6667 5.91128 10.6667 5.37931C10.6667 4.66597 10.3857 3.98185 9.88562 3.47744C9.38552 2.97303 8.70724 2.68966 8 2.68966ZM32 10.7586C30.9452 10.7586 29.914 10.4431 29.037 9.85205C28.1599 9.26096 27.4763 8.42083 27.0726 7.43789C26.669 6.45494 26.5634 5.37335 26.7691 4.32986C26.9749 3.28638 27.4829 2.32788 28.2288 1.57557C28.9746 0.823256 29.925 0.310926 30.9595 0.103364C31.9941 -0.104198 33.0664 0.00233075 34.041 0.409478C35.0155 0.816625 35.8485 1.50611 36.4345 2.39073C37.0205 3.27535 37.3333 4.31539 37.3333 5.37931C37.3316 6.80545 36.7691 8.17266 35.7693 9.18109C34.7695 10.1895 33.4139 10.7568 32 10.7586ZM32 2.68966C31.4726 2.68966 30.957 2.8474 30.5185 3.14295C30.0799 3.43849 29.7382 3.85856 29.5363 4.35003C29.3345 4.8415 29.2817 5.3823 29.3846 5.90404C29.4875 6.42578 29.7414 6.90503 30.1144 7.28119C30.4873 7.65734 30.9625 7.91351 31.4798 8.01729C31.997 8.12107 32.5332 8.0678 33.0205 7.86423C33.5078 7.66066 33.9242 7.31592 34.2173 6.8736C34.5103 6.43129 34.6667 5.91128 34.6667 5.37931C34.6667 4.66597 34.3857 3.98185 33.8856 3.47744C33.3855 2.97303 32.7072 2.68966 32 2.68966Z" fill="#F3FAF7"/>
<path d="M23.5 19C22.61 19 21.74 18.7361 20.9999 18.2416C20.2599 17.7471 19.6831 17.0443 19.3425 16.2221C19.002 15.3998 18.9128 14.495 19.0865 13.6221C19.2601 12.7492 19.6887 11.9474 20.318 11.318C20.9474 10.6887 21.7492 10.2601 22.6221 10.0865C23.495 9.91284 24.3998 10.0019 25.2221 10.3425C26.0443 10.6831 26.7471 11.2599 27.2416 11.9999C27.7361 12.74 28 13.61 28 14.5C27.9986 15.6931 27.5241 16.8369 26.6805 17.6805C25.8369 18.5241 24.6931 18.9986 23.5 19ZM23.5 12.5714C23.1186 12.5714 22.7457 12.6845 22.4285 12.8965C22.1114 13.1084 21.8642 13.4096 21.7182 13.762C21.5723 14.1144 21.5341 14.5021 21.6085 14.8762C21.6829 15.2504 21.8666 15.594 22.1363 15.8637C22.406 16.1334 22.7497 16.3171 23.1238 16.3915C23.4979 16.4659 23.8856 16.4277 24.238 16.2818C24.5904 16.1358 24.8916 15.8886 25.1035 15.5715C25.3155 15.2543 25.4286 14.8814 25.4286 14.5C25.4286 13.9885 25.2254 13.498 24.8637 13.1363C24.502 12.7746 24.0115 12.5714 23.5 12.5714Z" fill="#F3FAF7"/>
</svg>
