<svg width="229" height="228" viewBox="0 0 229 228" fill="none" xmlns="http://www.w3.org/2000/svg">
<mask id="path-1-outside-1_802_858" maskUnits="userSpaceOnUse" x="-1" y="0" width="230" height="228" fill="black">
<rect fill="white" x="-1" width="230" height="228"/>
<path d="M125.765 226.849C154.554 223.898 181.121 210.035 200.007 188.107C218.893 166.178 228.665 137.851 227.316 108.942C225.967 80.033 213.599 52.7383 192.753 32.6644C171.906 12.5905 144.164 1.26144 115.225 1.00446C86.286 0.747489 58.3471 11.5821 37.1474 31.2826C15.9477 50.9832 3.09691 78.0539 1.23465 106.934C-0.627612 135.814 8.64009 164.311 27.134 186.572C45.628 208.832 71.944 223.165 100.676 226.627L102.135 214.525C76.4955 211.435 53.0127 198.646 36.5098 178.782C20.007 158.919 11.7371 133.49 13.3988 107.719C15.0606 81.9476 26.5279 57.7913 45.4452 40.2118C64.3624 22.6322 89.2934 12.9641 115.117 13.1934C140.94 13.4227 165.696 23.5321 184.298 41.4448C202.9 59.3575 213.936 83.7136 215.14 109.51C216.344 135.306 207.624 160.585 190.771 180.152C173.918 199.719 150.212 212.09 124.522 214.723L125.765 226.849Z"/>
</mask>
<path d="M125.765 226.849C154.554 223.898 181.121 210.035 200.007 188.107C218.893 166.178 228.665 137.851 227.316 108.942C225.967 80.033 213.599 52.7383 192.753 32.6644C171.906 12.5905 144.164 1.26144 115.225 1.00446C86.286 0.747489 58.3471 11.5821 37.1474 31.2826C15.9477 50.9832 3.09691 78.0539 1.23465 106.934C-0.627612 135.814 8.64009 164.311 27.134 186.572C45.628 208.832 71.944 223.165 100.676 226.627L102.135 214.525C76.4955 211.435 53.0127 198.646 36.5098 178.782C20.007 158.919 11.7371 133.49 13.3988 107.719C15.0606 81.9476 26.5279 57.7913 45.4452 40.2118C64.3624 22.6322 89.2934 12.9641 115.117 13.1934C140.94 13.4227 165.696 23.5321 184.298 41.4448C202.9 59.3575 213.936 83.7136 215.14 109.51C216.344 135.306 207.624 160.585 190.771 180.152C173.918 199.719 150.212 212.09 124.522 214.723L125.765 226.849Z" fill="#BAA2D0"/>
<path d="M125.765 226.849C154.554 223.898 181.121 210.035 200.007 188.107C218.893 166.178 228.665 137.851 227.316 108.942C225.967 80.033 213.599 52.7383 192.753 32.6644C171.906 12.5905 144.164 1.26144 115.225 1.00446C86.286 0.747489 58.3471 11.5821 37.1474 31.2826C15.9477 50.9832 3.09691 78.0539 1.23465 106.934C-0.627612 135.814 8.64009 164.311 27.134 186.572C45.628 208.832 71.944 223.165 100.676 226.627L102.135 214.525C76.4955 211.435 53.0127 198.646 36.5098 178.782C20.007 158.919 11.7371 133.49 13.3988 107.719C15.0606 81.9476 26.5279 57.7913 45.4452 40.2118C64.3624 22.6322 89.2934 12.9641 115.117 13.1934C140.94 13.4227 165.696 23.5321 184.298 41.4448C202.9 59.3575 213.936 83.7136 215.14 109.51C216.344 135.306 207.624 160.585 190.771 180.152C173.918 199.719 150.212 212.09 124.522 214.723L125.765 226.849Z" stroke="white" stroke-width="2" stroke-linejoin="round" mask="url(#path-1-outside-1_802_858)"/>
<path d="M126.096 165.085C123.044 180.44 123.019 185.198 125.409 188.143C129.111 191.91 131.776 193.159 137.226 194.355C148.256 196.054 153.04 195.107 160.125 191.46C166.889 187.522 169.184 183.731 171.026 174.574C183.207 173.471 189.519 172.138 195.149 161.961C198.166 155.36 198.311 151.919 196.462 146.137C202.29 142.622 205.693 139.514 208.106 131.676C210.518 123.838 208.127 107.199 198.489 98.5566C203.424 79.9306 198.975 63.5247 187.365 56.3926C181.994 53.3096 177.948 52.7353 171.273 53.408C170.795 48.8983 170.51 46.7877 168.134 43.0279C165.758 39.268 157.73 31.9767 151.327 28.9204C144.923 25.864 140.688 26.1571 133.079 28.3509C125.947 31.4718 122.897 33.4696 120.959 42.0598C119.022 50.65 121.177 81.1192 121.177 81.1192L119.994 142.108C119.994 142.108 119.916 145.315 120.906 145.216C121.895 145.116 126.096 142.629 132.461 136.235C135.153 133.214 133.35 125.777 136.614 118.453C139.878 111.129 139.077 110.162 142.113 105.508C144.259 101.067 147.296 95.3927 146.246 92.8991C145.197 90.4056 141.42 87.266 140.638 86.4449C139.856 85.6237 135.042 86.8258 133.885 86.2422C132.727 85.6586 130.035 84.7291 129.746 78.8608C129.458 72.9926 131.951 71.943 134.475 72.1898C136.998 72.4365 139.829 72.7525 141.522 76.6808C143.215 80.6091 142.374 80.3016 144.097 85.5263C145.82 90.7509 147.012 89.0598 147.215 88.604C147.418 88.1483 147.838 85.8429 147.838 85.8429C148.104 79.8499 148.082 73.3244 147.478 70.2865C146.873 67.2486 143.141 60.926 142.735 59.8672C142.329 58.8085 141.12 52.7326 144.811 50.6634C148.501 48.5943 149.444 49.4329 153.569 53.2837C155.556 55.3839 156.767 56.2616 155.966 61.2395C155.166 66.2174 153.701 65.5646 152.534 67.8805C151.367 70.1965 152.922 74.7384 154.416 76.6875C155.911 78.6366 163.172 69.3128 163.578 70.3716C163.984 71.4304 162.601 77.5662 161.779 78.3482C160.958 79.1302 158.089 80.4174 158.089 80.4174C155.466 81.9631 154.865 83.3544 154.795 86.4449C155.209 91.7386 154.334 96.0185 150.366 106.08C150.366 106.08 146.281 114.185 147.746 114.838C149.211 115.491 150.408 114.471 150.408 114.471C155.105 111.471 158.16 109.998 163.904 107.521C163.904 107.521 171.899 103.521 171.908 100.622C171.918 97.722 170.967 96.2181 171.452 94.0705C171.936 91.923 172.493 90.415 175.735 87.9439C179.648 85.3501 185.472 83.3695 187.887 85.5263C190.302 87.683 191.032 94.3061 187.887 99.4383C187.887 99.4383 182.781 104.162 180.459 104.162C178.138 104.162 178.925 103.816 176.64 103.945C174.354 104.075 169.154 109.901 169.694 110.439C169.694 110.439 170.744 112.932 175.454 112.06C180.164 111.188 184.291 111.474 185.073 112.296C185.855 113.117 186.434 114.446 185.025 116.798C184.187 117.859 184.303 118.57 177.138 118.888C169.973 119.207 170.933 117.811 165.134 117.793C159.335 117.774 155.148 119.768 149.015 123.507C144.384 126.757 141.913 129.099 137.994 135.207C135.668 138.717 134.254 141.778 134.73 142.53C135.205 143.282 136.57 142.946 139.034 140.6C141.497 138.254 146.485 138.006 150.81 138.42L163.22 140.574L176.619 142.629C180.911 143.238 181.796 145.408 181.381 147.249C180.965 149.09 178.294 152.356 166.943 149.796L151.296 146.267C144.722 145.98 141.412 146.288 137.166 148.883C130.485 154.468 127.744 157.915 126.096 165.085Z" fill="#7AC2AC" stroke="white"/>
<path d="M103.135 165.085C106.187 180.44 106.212 185.198 103.822 188.143C100.121 191.91 97.4555 193.159 92.0051 194.355C80.9753 196.054 76.1913 195.107 69.1065 191.46C62.3429 187.522 60.0478 183.731 58.2053 174.574C46.0247 173.471 39.7121 172.138 34.082 161.961C31.0658 155.36 30.9209 151.919 32.7697 146.137C26.9418 142.622 23.5384 139.514 21.1257 131.676C18.7131 123.838 21.1048 107.199 30.7429 98.5566C25.8076 79.9306 30.2568 63.5247 41.8665 56.3926C47.2373 53.3096 51.2839 52.7353 57.9581 53.408C58.4364 48.8983 58.7217 46.7877 61.0977 43.0279C63.4737 39.268 71.5011 31.9767 77.9046 28.9204C84.308 25.864 88.5435 26.1571 96.1529 28.3509C103.285 31.4718 106.335 33.4696 108.272 42.0598C110.21 50.65 108.055 81.1192 108.055 81.1192L109.237 142.108C109.237 142.108 109.315 145.315 108.326 145.216C107.336 145.116 103.135 142.629 96.7708 136.235C94.0781 133.214 95.8814 125.777 92.6176 118.453C89.3537 111.129 90.1548 110.162 87.1186 105.508C84.9727 101.067 81.9356 95.3927 82.9852 92.8991C84.0348 90.4056 87.8118 87.266 88.5938 86.4449C89.3758 85.6237 94.189 86.8258 95.3469 86.2422C96.5049 85.6586 99.1968 84.7291 99.4853 78.8608C99.7737 72.9926 97.2802 71.943 94.7566 72.1898C92.2331 72.4365 89.4028 72.7525 87.7096 76.6808C86.0164 80.6091 86.8575 80.3016 85.1343 85.5263C83.4111 90.7509 82.2196 89.0598 82.0165 88.604C81.8133 88.1483 81.3937 85.8429 81.3937 85.8429C81.1275 79.8499 81.1494 73.3244 81.7538 70.2865C82.3582 67.2486 86.0905 60.926 86.4965 59.8672C86.9025 58.8085 88.1113 52.7326 84.4207 50.6634C80.73 48.5943 79.7878 49.4329 75.6621 53.2837C73.6752 55.3839 72.4649 56.2616 73.2653 61.2395C74.0656 66.2174 75.5304 65.5646 76.6975 67.8805C77.8647 70.1965 76.3099 74.7384 74.8151 76.6875C73.3203 78.6366 66.059 69.3128 65.653 70.3716C65.247 71.4304 66.6309 77.5662 67.4521 78.3482C68.2733 79.1302 71.1428 80.4174 71.1428 80.4174C73.7651 81.9631 74.3665 83.3544 74.4367 86.4449C74.0227 91.7386 74.8975 96.0185 78.8652 106.08C78.8652 106.08 82.9503 114.185 81.4855 114.838C80.0207 115.491 78.8236 114.471 78.8236 114.471C74.1266 111.471 71.0714 109.998 65.3272 107.521C65.3272 107.521 57.3322 103.521 57.323 100.622C57.3138 97.722 58.2642 96.2181 57.7798 94.0705C57.2955 91.923 56.7389 90.415 53.4964 87.9439C49.583 85.3501 43.7599 83.3695 41.3447 85.5263C38.9296 87.683 38.1998 94.3061 41.3447 99.4383C41.3447 99.4383 46.4509 104.162 48.772 104.162C51.0931 104.162 50.306 103.816 52.5919 103.945C54.8779 104.075 60.0775 109.901 59.5373 110.439C59.5373 110.439 58.4877 112.932 53.7774 112.06C49.0672 111.188 44.9405 111.474 44.1585 112.296C43.3765 113.117 42.7978 114.446 44.2068 116.798C45.0441 117.859 44.9288 118.57 52.0934 118.888C59.258 119.207 58.2985 117.811 64.0975 117.793C69.8966 117.774 74.0836 119.768 80.2167 123.507C84.8479 126.757 87.3184 129.099 91.2379 135.207C93.5638 138.717 94.977 141.778 94.5018 142.53C94.0266 143.282 92.661 142.946 90.1975 140.6C87.734 138.254 82.7464 138.006 78.4218 138.42L66.0117 140.574L52.6121 142.629C48.3202 143.238 47.4358 145.408 47.8509 147.249C48.2661 149.09 50.9372 152.356 62.2886 149.796L77.935 146.267C84.5099 145.98 87.8197 146.288 92.0658 148.883C98.7463 154.468 101.488 157.915 103.135 165.085Z" fill="#BAA2D0" stroke="white"/>
</svg>
