<svg width="24" height="30" viewBox="0 0 24 30" fill="none" xmlns="http://www.w3.org/2000/svg">
<path d="M12 2C9.34784 2 6.8043 3.05357 4.92893 4.92893C3.05357 6.8043 2 9.34784 2 12V14H4C4.53043 14 5.03914 14.2107 5.41421 14.5858C5.78929 14.9609 6 15.4696 6 16V22C6 22.5304 5.78929 23.0391 5.41421 23.4142C5.03914 23.7893 4.53043 24 4 24H2C1.46957 24 0.960859 23.7893 0.585786 23.4142C0.210714 23.0391 0 22.5304 0 22V12C-2.34822e-08 10.4241 0.310389 8.86371 0.913445 7.4078C1.5165 5.95189 2.40042 4.62902 3.51472 3.51472C4.62902 2.40042 5.95189 1.5165 7.4078 0.913446C8.86371 0.310389 10.4241 0 12 0C13.5759 0 15.1363 0.310389 16.5922 0.913446C18.0481 1.5165 19.371 2.40042 20.4853 3.51472C21.5996 4.62902 22.4835 5.95189 23.0866 7.4078C23.6896 8.86371 24 10.4241 24 12V24C24 25.3261 23.4732 26.5979 22.5355 27.5355C21.5979 28.4732 20.3261 29 19 29H14.732C14.5565 29.304 14.304 29.5565 14 29.732C13.6959 29.9076 13.3511 30 13 30H11C10.4696 30 9.96086 29.7893 9.58579 29.4142C9.21071 29.0391 9 28.5304 9 28C9 27.4696 9.21071 26.9609 9.58579 26.5858C9.96086 26.2107 10.4696 26 11 26H13C13.3511 26 13.6959 26.0924 14 26.268C14.304 26.4435 14.5565 26.696 14.732 27H19C19.7957 27 20.5587 26.6839 21.1213 26.1213C21.6839 25.5587 22 24.7957 22 24H20C19.4696 24 18.9609 23.7893 18.5858 23.4142C18.2107 23.0391 18 22.5304 18 22V16C18 15.4696 18.2107 14.9609 18.5858 14.5858C18.9609 14.2107 19.4696 14 20 14H22V12C22 10.6868 21.7413 9.38642 21.2388 8.17317C20.7362 6.95991 19.9997 5.85752 19.0711 4.92893C18.1425 4.00035 17.0401 3.26375 15.8268 2.7612C14.6136 2.25866 13.3132 2 12 2Z" fill="#F3FAF7"/>
</svg>
