<svg width="148" height="134" viewBox="0 0 148 134" fill="none" xmlns="http://www.w3.org/2000/svg">
<path d="M73.1663 120.333C73.6107 120.333 74.0552 120.222 74.4996 120C74.9441 119.778 75.2774 119.556 75.4996 119.333L130.166 64.6667C131.5 63.3333 132.472 61.8333 133.083 60.1667C133.694 58.5 134 56.8333 134 55.1667C134 53.3889 133.694 51.6945 133.083 50.0833C132.472 48.4722 131.5 47.0556 130.166 45.8333L101.833 17.5C100.611 16.1667 99.1941 15.1945 97.5829 14.5833C95.9718 13.9722 94.2774 13.6667 92.4996 13.6667C90.8329 13.6667 89.1663 13.9722 87.4996 14.5833C85.8329 15.1945 84.3329 16.1667 82.9996 17.5L81.1663 19.3333L93.4996 31.8333C95.1663 33.3889 96.3885 35.1667 97.1663 37.1667C97.9441 39.1667 98.3329 41.2778 98.3329 43.5C98.3329 48.1667 96.7496 52.0833 93.5829 55.25C90.4163 58.4167 86.4996 60 81.8329 60C79.6107 60 77.4718 59.6111 75.4163 58.8333C73.3607 58.0556 71.5552 56.8889 69.9996 55.3333L57.4996 43L28.3329 72.1667C27.9996 72.5 27.7496 72.8611 27.5829 73.25C27.4163 73.6389 27.3329 74.0556 27.3329 74.5C27.3329 75.3889 27.6663 76.1945 28.3329 76.9167C28.9996 77.6389 29.7774 78 30.6663 78C31.1107 78 31.5552 77.8889 31.9996 77.6667C32.4441 77.4445 32.7774 77.2222 32.9996 77L55.6663 54.3333L64.9996 63.6667L42.4996 86.3333C42.1663 86.6667 41.9163 87.0278 41.7496 87.4167C41.5829 87.8056 41.4996 88.2222 41.4996 88.6667C41.4996 89.5556 41.8329 90.3333 42.4996 91C43.1663 91.6667 43.9441 92 44.8329 92C45.2774 92 45.7218 91.8889 46.1663 91.6667C46.6107 91.4445 46.9441 91.2222 47.1663 91L69.8329 68.5L79.1663 77.8333L56.6663 100.5C56.3329 100.722 56.0829 101.056 55.9163 101.5C55.7496 101.944 55.6663 102.389 55.6663 102.833C55.6663 103.722 55.9996 104.5 56.6663 105.167C57.3329 105.833 58.1107 106.167 58.9996 106.167C59.4441 106.167 59.8607 106.083 60.2496 105.917C60.6385 105.75 60.9996 105.5 61.3329 105.167L83.9996 82.6667L93.3329 92L70.6663 114.667C70.3329 115 70.0829 115.361 69.9163 115.75C69.7496 116.139 69.6663 116.556 69.6663 117C69.6663 117.889 70.0274 118.667 70.7496 119.333C71.4718 120 72.2774 120.333 73.1663 120.333ZM72.9996 133.667C68.8885 133.667 65.2496 132.306 62.0829 129.583C58.9163 126.861 57.0552 123.444 56.4996 119.333C52.7218 118.778 49.5552 117.222 46.9996 114.667C44.4441 112.111 42.8885 108.944 42.3329 105.167C38.5552 104.611 35.4163 103.028 32.9163 100.417C30.4163 97.8056 28.8885 94.6667 28.3329 91C24.1107 90.4445 20.6663 88.6111 17.9996 85.5C15.3329 82.3889 13.9996 78.7222 13.9996 74.5C13.9996 72.2778 14.4163 70.1389 15.2496 68.0833C16.0829 66.0278 17.2774 64.2222 18.8329 62.6667L57.4996 24.1667L79.3329 46C79.5552 46.3333 79.8885 46.5833 80.3329 46.75C80.7774 46.9167 81.2218 47 81.6663 47C82.6663 47 83.4996 46.6945 84.1663 46.0833C84.8329 45.4722 85.1663 44.6667 85.1663 43.6667C85.1663 43.2222 85.0829 42.7778 84.9163 42.3333C84.7496 41.8889 84.4996 41.5556 84.1663 41.3333L60.3329 17.5C59.1107 16.1667 57.6941 15.1945 56.0829 14.5833C54.4718 13.9722 52.7774 13.6667 50.9996 13.6667C49.3329 13.6667 47.6663 13.9722 45.9996 14.5833C44.3329 15.1945 42.8329 16.1667 41.4996 17.5L17.9996 41.1667C16.9996 42.1667 16.1663 43.3333 15.4996 44.6667C14.8329 46 14.3885 47.3333 14.1663 48.6667C13.9441 50 13.9441 51.3611 14.1663 52.75C14.3885 54.1389 14.8329 55.4445 15.4996 56.6667L5.83294 66.3333C3.94405 63.7778 2.55517 60.9722 1.66628 57.9167C0.777387 54.8611 0.444054 51.7778 0.666276 48.6667C0.888498 45.5556 1.66628 42.5278 2.99961 39.5833C4.33294 36.6389 6.16628 34 8.49961 31.6667L31.9996 8.16668C34.6663 5.61112 37.6385 3.66668 40.9163 2.33334C44.1941 1.00001 47.5552 0.333344 50.9996 0.333344C54.4441 0.333344 57.8052 1.00001 61.0829 2.33334C64.3607 3.66668 67.2774 5.61112 69.8329 8.16668L71.6663 10L73.4996 8.16668C76.1663 5.61112 79.1385 3.66668 82.4163 2.33334C85.6941 1.00001 89.0552 0.333344 92.4996 0.333344C95.9441 0.333344 99.3052 1.00001 102.583 2.33334C105.861 3.66668 108.777 5.61112 111.333 8.16668L139.5 36.3333C142.055 38.8889 144 41.8333 145.333 45.1667C146.666 48.5 147.333 51.8889 147.333 55.3333C147.333 58.7778 146.666 62.1389 145.333 65.4167C144 68.6945 142.055 71.6111 139.5 74.1667L84.8329 128.667C83.2774 130.222 81.4718 131.444 79.4163 132.333C77.3607 133.222 75.2218 133.667 72.9996 133.667Z" fill="#3E8E79"/>
</svg>
