<svg width="59" height="57" viewBox="0 0 59 57" fill="none" xmlns="http://www.w3.org/2000/svg">
<path d="M42 30.7509L30.5875 19.6134C29.1667 18.2384 27.9635 16.7144 26.9781 15.0415C25.9927 13.3686 25.5 11.5467 25.5 9.57585C25.5 7.05502 26.3823 4.91231 28.1469 3.14773C29.9115 1.38315 32.0542 0.500854 34.575 0.500854C36.0417 0.500854 37.4167 0.81023 38.7 1.42898C39.9833 2.04773 41.0833 2.88419 42 3.93835C42.9167 2.88419 44.0167 2.04773 45.3 1.42898C46.5833 0.81023 47.9583 0.500854 49.425 0.500854C51.9458 0.500854 54.0885 1.38315 55.8531 3.14773C57.6177 4.91231 58.5 7.05502 58.5 9.57585C58.5 11.5467 58.0188 13.3686 57.0563 15.0415C56.0938 16.7144 54.9021 18.2384 53.4813 19.6134L42 30.7509ZM42 23.0509L49.4938 15.6946C50.3646 14.8238 51.1667 13.8956 51.9 12.9102C52.6333 11.9248 53 10.8134 53 9.57585C53 8.56752 52.6562 7.7196 51.9688 7.0321C51.2812 6.3446 50.4333 6.00085 49.425 6.00085C48.7833 6.00085 48.176 6.1269 47.6031 6.37898C47.0302 6.63106 46.5375 7.00919 46.125 7.51335L42 12.4634L37.875 7.51335C37.4625 7.00919 36.9698 6.63106 36.3969 6.37898C35.824 6.1269 35.2167 6.00085 34.575 6.00085C33.5667 6.00085 32.7188 6.3446 32.0312 7.0321C31.3438 7.7196 31 8.56752 31 9.57585C31 10.8134 31.3667 11.9248 32.1 12.9102C32.8333 13.8956 33.6354 14.8238 34.5063 15.6946L42 23.0509ZM17.25 45.8759L36.3625 51.1009L52.725 46.0134C52.4958 45.6009 52.1635 45.2456 51.7281 44.9477C51.2927 44.6498 50.8 44.5009 50.25 44.5009H36.3625C35.125 44.5009 34.1396 44.455 33.4062 44.3634C32.6729 44.2717 31.9167 44.0884 31.1375 43.8134L24.7437 41.6821L26.2563 36.3196L31.825 38.1759C32.6042 38.405 33.5208 38.5884 34.575 38.7259C35.6292 38.8634 37.1875 38.955 39.25 39.0009C39.25 38.4967 39.101 38.0154 38.8031 37.5571C38.5052 37.0988 38.15 36.8009 37.7375 36.6634L21.65 30.7509H17.25V45.8759ZM0.75 55.5009V25.2509H21.65C21.9708 25.2509 22.2917 25.2852 22.6125 25.354C22.9333 25.4227 23.2313 25.5029 23.5063 25.5946L39.6625 31.5759C41.175 32.1259 42.401 33.0884 43.3406 34.4634C44.2802 35.8384 44.75 37.3509 44.75 39.0009H50.25C52.5417 39.0009 54.4896 39.7571 56.0938 41.2696C57.6979 42.7821 58.5 44.7759 58.5 47.2509V50.0009L36.5 56.8759L17.25 51.5134V55.5009H0.75ZM6.25 50.0009H11.75V30.7509H6.25V50.0009Z" fill="#F2F9F9"/>
</svg>
