<svg width="141" height="137" viewBox="0 0 141 137" fill="none" xmlns="http://www.w3.org/2000/svg">
<path d="M100.666 73.6667L72.9994 46.6667C69.5549 43.3333 66.6382 39.6389 64.2494 35.5833C61.8605 31.5278 60.666 27.1111 60.666 22.3333C60.666 16.2222 62.8049 11.0278 67.0827 6.75001C71.3605 2.47223 76.5549 0.333344 82.666 0.333344C86.2216 0.333344 89.5549 1.08334 92.666 2.58334C95.7771 4.08334 98.4438 6.11112 100.666 8.66668C102.888 6.11112 105.555 4.08334 108.666 2.58334C111.777 1.08334 115.11 0.333344 118.666 0.333344C124.777 0.333344 129.972 2.47223 134.249 6.75001C138.527 11.0278 140.666 16.2222 140.666 22.3333C140.666 27.1111 139.499 31.5278 137.166 35.5833C134.833 39.6389 131.944 43.3333 128.499 46.6667L100.666 73.6667ZM100.666 55L118.833 37.1667C120.944 35.0556 122.888 32.8056 124.666 30.4167C126.444 28.0278 127.333 25.3333 127.333 22.3333C127.333 19.8889 126.499 17.8333 124.833 16.1667C123.166 14.5 121.11 13.6667 118.666 13.6667C117.11 13.6667 115.638 13.9722 114.249 14.5833C112.86 15.1945 111.666 16.1111 110.666 17.3333L100.666 29.3333L90.666 17.3333C89.666 16.1111 88.4716 15.1945 87.0827 14.5833C85.6938 13.9722 84.2216 13.6667 82.666 13.6667C80.2216 13.6667 78.166 14.5 76.4994 16.1667C74.8327 17.8333 73.9994 19.8889 73.9994 22.3333C73.9994 25.3333 74.8882 28.0278 76.666 30.4167C78.4438 32.8056 80.3882 35.0556 82.4994 37.1667L100.666 55ZM40.666 110.333L86.9994 123L126.666 110.667C126.11 109.667 125.305 108.806 124.249 108.083C123.194 107.361 121.999 107 120.666 107H86.9994C83.9994 107 81.6105 106.889 79.8327 106.667C78.0549 106.444 76.2216 106 74.3327 105.333L58.8327 100.167L62.4994 87.1667L75.9994 91.6667C77.8882 92.2222 80.1105 92.6667 82.666 93C85.2216 93.3333 88.9994 93.5556 93.9994 93.6667C93.9994 92.4445 93.6382 91.2778 92.916 90.1667C92.1938 89.0556 91.3327 88.3333 90.3327 88L51.3327 73.6667H40.666V110.333ZM0.666016 133.667V60.3333H51.3327C52.1105 60.3333 52.8882 60.4167 53.666 60.5833C54.4438 60.75 55.166 60.9445 55.8327 61.1667L94.9994 75.6667C98.666 77 101.638 79.3333 103.916 82.6667C106.194 86 107.333 89.6667 107.333 93.6667H120.666C126.222 93.6667 130.944 95.5 134.833 99.1667C138.722 102.833 140.666 107.667 140.666 113.667V120.333L87.3327 137L40.666 124V133.667H0.666016ZM13.9993 120.333H27.3327V73.6667H13.9993V120.333Z" fill="#3E8E79"/>
</svg>
