<svg width="62" height="56" viewBox="0 0 62 56" fill="none" xmlns="http://www.w3.org/2000/svg">
<path d="M30.6564 50.0009C30.8397 50.0009 31.0231 49.955 31.2064 49.8634C31.3897 49.7717 31.5272 49.68 31.6189 49.5884L54.1689 27.0384C54.7189 26.4884 55.1199 25.8696 55.372 25.1821C55.6241 24.4946 55.7502 23.8071 55.7502 23.1196C55.7502 22.3863 55.6241 21.6873 55.372 21.0227C55.1199 20.3581 54.7189 19.7738 54.1689 19.2696L42.4814 7.5821C41.9772 7.0321 41.3929 6.63106 40.7283 6.37898C40.0637 6.1269 39.3647 6.00085 38.6314 6.00085C37.9439 6.00085 37.2564 6.1269 36.5689 6.37898C35.8814 6.63106 35.2627 7.0321 34.7127 7.5821L33.9564 8.33835L39.0439 13.4946C39.7314 14.1363 40.2356 14.8696 40.5564 15.6946C40.8772 16.5196 41.0377 17.3904 41.0377 18.3071C41.0377 20.2321 40.3845 21.8477 39.0783 23.154C37.772 24.4602 36.1564 25.1134 34.2314 25.1134C33.3147 25.1134 32.4324 24.9529 31.5845 24.6321C30.7366 24.3113 29.9918 23.83 29.3502 23.1884L24.1939 18.1009L12.1627 30.1321C12.0252 30.2696 11.922 30.4186 11.8533 30.579C11.7845 30.7394 11.7502 30.9113 11.7502 31.0946C11.7502 31.4613 11.8877 31.7936 12.1627 32.0915C12.4377 32.3894 12.7585 32.5384 13.1252 32.5384C13.3085 32.5384 13.4918 32.4925 13.6752 32.4009C13.8585 32.3092 13.996 32.2175 14.0877 32.1259L23.4377 22.7759L27.2877 26.6259L18.0064 35.9759C17.8689 36.1134 17.7658 36.2623 17.697 36.4227C17.6283 36.5831 17.5939 36.755 17.5939 36.9384C17.5939 37.305 17.7314 37.6259 18.0064 37.9009C18.2814 38.1759 18.6022 38.3134 18.9689 38.3134C19.1522 38.3134 19.3356 38.2675 19.5189 38.1759C19.7022 38.0842 19.8397 37.9925 19.9314 37.9009L29.2814 28.6196L33.1314 32.4696L23.8502 41.8196C23.7127 41.9113 23.6095 42.0488 23.5408 42.2321C23.472 42.4154 23.4377 42.5988 23.4377 42.7821C23.4377 43.1488 23.5752 43.4696 23.8502 43.7446C24.1252 44.0196 24.446 44.1571 24.8127 44.1571C24.996 44.1571 25.1679 44.1227 25.3283 44.054C25.4887 43.9852 25.6377 43.8821 25.7752 43.7446L35.1252 34.4634L38.9752 38.3134L29.6252 47.6634C29.4877 47.8009 29.3845 47.9498 29.3158 48.1102C29.247 48.2706 29.2127 48.4425 29.2127 48.6259C29.2127 48.9925 29.3616 49.3134 29.6595 49.5884C29.9574 49.8634 30.2897 50.0009 30.6564 50.0009ZM30.5877 55.5009C28.8918 55.5009 27.3908 54.9394 26.0845 53.8165C24.7783 52.6936 24.0106 51.2842 23.7814 49.5884C22.2231 49.3592 20.9168 48.7175 19.8627 47.6634C18.8085 46.6092 18.1668 45.3029 17.9377 43.7446C16.3793 43.5154 15.0845 42.8623 14.0533 41.7852C13.022 40.7081 12.3918 39.4134 12.1627 37.9009C10.421 37.6717 9.00016 36.9154 7.90016 35.6321C6.80016 34.3488 6.25016 32.8363 6.25016 31.0946C6.25016 30.1779 6.42203 29.2956 6.76578 28.4477C7.10953 27.5998 7.60224 26.855 8.24391 26.2134L24.1939 10.3321L33.2002 19.3384C33.2918 19.4759 33.4293 19.579 33.6127 19.6477C33.796 19.7165 33.9793 19.7509 34.1627 19.7509C34.5752 19.7509 34.9189 19.6248 35.1939 19.3727C35.4689 19.1206 35.6064 18.7884 35.6064 18.3759C35.6064 18.1925 35.572 18.0092 35.5033 17.8259C35.4345 17.6425 35.3314 17.505 35.1939 17.4134L25.3627 7.5821C24.8585 7.0321 24.2741 6.63106 23.6095 6.37898C22.9449 6.1269 22.246 6.00085 21.5127 6.00085C20.8252 6.00085 20.1377 6.1269 19.4502 6.37898C18.7627 6.63106 18.1439 7.0321 17.5939 7.5821L7.90016 17.3446C7.48766 17.7571 7.14391 18.2384 6.86891 18.7884C6.59391 19.3384 6.41057 19.8884 6.31891 20.4384C6.22724 20.9884 6.22724 21.5498 6.31891 22.1227C6.41057 22.6956 6.59391 23.2342 6.86891 23.7384L2.88141 27.7259C2.10224 26.6717 1.52932 25.5144 1.16266 24.254C0.79599 22.9936 0.65849 21.7217 0.750156 20.4384C0.841823 19.155 1.16266 17.9061 1.71266 16.6915C2.26266 15.4769 3.01891 14.3884 3.98141 13.4259L13.6752 3.7321C14.7752 2.67794 16.0012 1.87585 17.3533 1.32585C18.7054 0.775855 20.0918 0.500854 21.5127 0.500854C22.9335 0.500854 24.3199 0.775855 25.672 1.32585C27.0241 1.87585 28.2272 2.67794 29.2814 3.7321L30.0377 4.48835L30.7939 3.7321C31.8939 2.67794 33.1199 1.87585 34.472 1.32585C35.8241 0.775855 37.2106 0.500854 38.6314 0.500854C40.0522 0.500854 41.4387 0.775855 42.7908 1.32585C44.1429 1.87585 45.346 2.67794 46.4002 3.7321L58.0189 15.3509C59.0731 16.405 59.8752 17.6196 60.4252 18.9946C60.9752 20.3696 61.2502 21.7675 61.2502 23.1884C61.2502 24.6092 60.9752 25.9956 60.4252 27.3477C59.8752 28.6998 59.0731 29.9029 58.0189 30.9571L35.4689 53.4384C34.8272 54.08 34.0824 54.5842 33.2345 54.9509C32.3866 55.3175 31.5043 55.5009 30.5877 55.5009Z" fill="#F2F9F9"/>
</svg>
