<svg width="495" height="115" viewBox="0 0 495 115" fill="none" xmlns="http://www.w3.org/2000/svg">
<g id="logo">
<path d="M58.916 106.736C72.5108 105.341 85.0559 98.7893 93.9743 88.4262C102.893 78.063 107.507 64.6752 106.87 51.013C106.233 37.3508 100.393 24.4514 90.5488 14.9645C80.7048 5.47762 67.6045 0.123558 53.939 0.00211193C40.2735 -0.119334 27.0803 5.00106 17.0695 14.3115C7.05865 23.6219 0.990277 36.4155 0.110887 50.0643C-0.768503 63.713 3.60785 77.1806 12.341 87.7007C21.0741 98.2207 33.501 104.995 47.0689 106.631L47.7574 100.911C35.6503 99.4513 24.5613 93.4068 16.7684 84.0194C8.97549 74.6319 5.0703 62.6142 5.85501 50.4349C6.63972 38.2556 12.0548 26.8395 20.9878 18.5314C29.9208 10.2233 41.6936 5.65422 53.8879 5.76259C66.0821 5.87096 77.772 10.6486 86.5562 19.1141C95.3404 27.5796 100.552 39.0903 101.121 51.2816C101.689 63.4729 97.5712 75.4193 89.6129 84.6667C81.6547 93.9142 70.4602 99.7607 58.329 101.005L58.916 106.736Z" fill="#3E8E79"/>
<path d="M59.0725 77.5464C57.6313 84.8029 57.6194 87.0515 58.748 88.4435C60.4961 90.2236 61.7546 90.8138 64.3284 91.3791C69.5368 92.1819 71.7959 91.7347 75.1415 90.0108C78.3353 88.1497 79.4191 86.3581 80.2892 82.0309C86.0411 81.5093 89.022 80.8796 91.6806 76.0698C93.1049 72.9502 93.1733 71.3241 92.3003 68.5914C95.0523 66.9303 96.6594 65.4615 97.7987 61.7572C98.938 58.0529 97.8086 50.1893 93.2574 46.105C95.5879 37.3024 93.4869 29.549 88.0046 26.1784C85.4685 24.7214 83.5576 24.45 80.4059 24.7679C80.1801 22.6366 80.0453 21.6392 78.9233 19.8623C77.8014 18.0854 74.0107 14.6395 70.9869 13.1951C67.9631 11.7507 65.963 11.8892 62.3697 12.926C59.002 14.4009 57.5617 15.3451 56.6468 19.4048C55.7319 23.4645 56.7495 37.8642 56.7495 37.8642L56.1912 66.6875C56.1912 66.6875 56.1542 68.2028 56.6215 68.1559C57.0888 68.109 59.0725 66.9334 62.0779 63.9116C63.3495 62.4841 62.4979 58.9692 64.0391 55.508C65.5804 52.0468 65.2021 51.5899 66.6358 49.3901C67.6492 47.2915 69.0833 44.6098 68.5877 43.4313C68.0921 42.2529 66.3085 40.7691 65.9392 40.381C65.57 39.993 63.2971 40.5611 62.7503 40.2853C62.2035 40.0095 60.9323 39.5702 60.7961 36.7968C60.6599 34.0235 61.8374 33.5275 63.029 33.6441C64.2207 33.7607 65.5572 33.9101 66.3568 35.7666C67.1563 37.6231 66.7591 37.4778 67.5729 39.9469C68.3866 42.4161 68.9492 41.6169 69.0452 41.4015C69.1411 41.1861 69.3392 40.0966 69.3392 40.0966C69.4649 37.2643 69.4546 34.1804 69.1692 32.7446C68.8838 31.3089 67.1213 28.3209 66.9296 27.8205C66.7379 27.3201 66.1671 24.4487 67.9099 23.4708C69.6527 22.4929 70.0976 22.8893 72.0458 24.7092C72.984 25.7017 73.5555 26.1165 73.1776 28.469C72.7997 30.8216 72.108 30.5131 71.5568 31.6076C71.0057 32.7021 71.7399 34.8486 72.4457 35.7697C73.1516 36.6909 76.5805 32.2845 76.7723 32.7849C76.964 33.2852 76.3105 36.185 75.9227 36.5546C75.5349 36.9241 74.1799 37.5325 74.1799 37.5325C72.9416 38.263 72.6576 38.9205 72.6245 40.381C72.8199 42.8828 72.4069 44.9055 70.5332 49.6604C70.5332 49.6604 68.6042 53.4911 69.2959 53.7996C69.9876 54.1081 70.5529 53.6263 70.5529 53.6263C72.7709 52.2085 74.2136 51.5123 76.9261 50.3416C76.9261 50.3416 80.7015 48.4512 80.7058 47.0809C80.7101 45.7106 80.2614 44.9998 80.4901 43.9849C80.7188 42.97 80.9816 42.2573 82.5128 41.0895C84.3608 39.8636 87.1105 38.9276 88.251 39.9469C89.3915 40.9662 89.7361 44.0962 88.251 46.5217C88.251 46.5217 85.8398 48.7542 84.7437 48.7542C83.6477 48.7542 84.0194 48.5907 82.9399 48.6518C81.8605 48.7128 79.4051 51.4662 79.6602 51.7206C79.6602 51.7206 80.1558 52.899 82.3801 52.4869C84.6044 52.0748 86.553 52.2099 86.9223 52.598C87.2916 52.9861 87.5648 53.6142 86.8995 54.726C86.5041 55.2271 86.5585 55.5632 83.1753 55.7137C79.7921 55.8642 80.2452 55.2047 77.5068 55.196C74.7684 55.1873 72.7912 56.1296 69.8951 57.8964C67.7081 59.4325 66.5415 60.5392 64.6907 63.4257C63.5923 65.0845 62.925 66.5315 63.1494 66.8869C63.3738 67.2423 64.0186 67.0831 65.1819 65.9744C66.3453 64.8657 68.7005 64.7485 70.7426 64.9441L76.6029 65.9622L82.9304 66.9335C84.9571 67.2212 85.3747 68.247 85.1787 69.117C84.9826 69.9869 83.7213 71.5306 78.361 70.3206L70.9725 68.6528C67.8677 68.517 66.3048 68.6628 64.2997 69.8891C61.1451 72.5287 59.8506 74.1579 59.0725 77.5464Z" fill="url(#paint0_linear_396_551)"/>
<path d="M48.2301 77.5464C49.6712 84.8029 49.6831 87.0515 48.5545 88.4435C46.8064 90.2236 45.5479 90.8138 42.9741 91.3791C37.7657 92.1819 35.5066 91.7347 32.1611 90.0108C28.9672 88.1497 27.8834 86.3581 27.0133 82.0309C21.2615 81.5093 18.2806 80.8796 15.6219 76.0698C14.1976 72.9502 14.1292 71.3241 15.0023 68.5914C12.2502 66.9303 10.6431 65.4615 9.50378 61.7572C8.36447 58.0529 9.49389 50.1893 14.0452 46.105C11.7146 37.3024 13.8156 29.549 19.2979 26.1784C21.8341 24.7214 23.745 24.45 26.8966 24.7679C27.1225 22.6366 27.2572 21.6392 28.3792 19.8623C29.5012 18.0854 33.2918 14.6395 36.3157 13.1951C39.3395 11.7507 41.3395 11.8892 44.9328 12.926C48.3005 14.4009 49.7408 15.3451 50.6557 19.4048C51.5706 23.4645 50.553 37.8642 50.553 37.8642L51.1113 66.6875C51.1113 66.6875 51.1483 68.2028 50.681 68.1559C50.2138 68.109 48.2301 66.9334 45.2246 63.9116C43.953 62.4841 44.8046 58.9692 43.2634 55.508C41.7221 52.0468 42.1004 51.5899 40.6667 49.3901C39.6534 47.2915 38.2192 44.6098 38.7148 43.4313C39.2104 42.2529 40.994 40.7691 41.3633 40.381C41.7325 39.993 44.0054 40.5611 44.5522 40.2853C45.099 40.0095 46.3702 39.5702 46.5064 36.7968C46.6426 34.0235 45.4651 33.5275 44.2735 33.6441C43.0818 33.7607 41.7453 33.9101 40.9457 35.7666C40.1462 37.6231 40.5434 37.4778 39.7296 39.9469C38.9159 42.4161 38.3533 41.6169 38.2574 41.4015C38.1614 41.1861 37.9633 40.0966 37.9633 40.0966C37.8376 37.2643 37.8479 34.1804 38.1333 32.7446C38.4187 31.3089 40.1812 28.3209 40.3729 27.8205C40.5646 27.3201 41.1355 24.4487 39.3927 23.4708C37.6498 22.4929 37.2049 22.8893 35.2567 24.7092C34.3185 25.7017 33.747 26.1165 34.1249 28.469C34.5028 30.8216 35.1945 30.5131 35.7457 31.6076C36.2968 32.7021 35.5626 34.8486 34.8568 35.7697C34.1509 36.6909 30.722 32.2845 30.5303 32.7849C30.3385 33.2852 30.9921 36.185 31.3798 36.5546C31.7676 36.9241 33.1226 37.5325 33.1226 37.5325C34.3609 38.263 34.6449 38.9205 34.6781 40.381C34.4826 42.8828 34.8957 44.9055 36.7693 49.6604C36.7693 49.6604 38.6983 53.4911 38.0066 53.7996C37.3149 54.1081 36.7496 53.6263 36.7496 53.6263C34.5316 52.2085 33.0889 51.5123 30.3764 50.3416C30.3764 50.3416 26.601 48.4512 26.5967 47.0809C26.5924 45.7106 27.0412 44.9998 26.8124 43.9849C26.5837 42.97 26.3209 42.2573 24.7897 41.0895C22.9418 39.8636 20.192 38.9276 19.0515 39.9469C17.911 40.9662 17.5664 44.0962 19.0515 46.5217C19.0515 46.5217 21.4627 48.7542 22.5588 48.7542C23.6549 48.7542 23.2831 48.5907 24.3626 48.6518C25.4421 48.7128 27.8974 51.4662 27.6423 51.7206C27.6423 51.7206 27.1467 52.899 24.9224 52.4869C22.6982 52.0748 20.7495 52.2099 20.3802 52.598C20.0109 52.9861 19.7377 53.6142 20.403 54.726C20.7984 55.2271 20.744 55.5632 24.1272 55.7137C27.5105 55.8642 27.0573 55.2047 29.7957 55.196C32.5341 55.1873 34.5113 56.1296 37.4075 57.8964C39.5944 59.4325 40.761 60.5392 42.6119 63.4257C43.7102 65.0845 44.3775 66.5315 44.1531 66.8869C43.9287 67.2423 43.2839 67.0831 42.1206 65.9744C40.9573 64.8657 38.602 64.7485 36.5599 64.9441L30.6997 65.9622L24.3721 66.9335C22.3455 67.2212 21.9278 68.247 22.1238 69.117C22.3199 69.9869 23.5812 71.5306 28.9415 70.3206L36.33 68.6528C39.4348 68.517 40.9977 68.6628 43.0028 69.8891C46.1574 72.5287 47.4519 74.1579 48.2301 77.5464Z" fill="url(#paint1_linear_396_551)"/>
<path d="M133.769 52.7797C133.769 47.537 134.903 42.8741 137.169 38.7908C139.436 34.6572 142.584 31.4561 146.614 29.1876C150.694 26.8687 155.303 25.7093 160.44 25.7093C166.736 25.7093 172.126 27.3729 176.609 30.6999C181.092 34.027 184.089 38.564 185.6 44.3107H171.396C170.338 42.0927 168.827 40.4039 166.862 39.2445C164.948 38.0851 162.757 37.5053 160.289 37.5053C156.31 37.5053 153.086 38.8916 150.618 41.6642C148.15 44.4368 146.916 48.1419 146.916 52.7797C146.916 57.4175 148.15 61.1226 150.618 63.8952C153.086 66.6678 156.31 68.054 160.289 68.054C162.757 68.054 164.948 67.4743 166.862 66.3149C168.827 65.1555 170.338 63.4667 171.396 61.2486H185.6C184.089 66.9954 181.092 71.5324 176.609 74.8595C172.126 78.1361 166.736 79.7745 160.44 79.7745C155.303 79.7745 150.694 78.6402 146.614 76.3718C142.584 74.0529 139.436 70.8518 137.169 66.7686C134.903 62.6853 133.769 58.0224 133.769 52.7797Z" fill="#58A993"/>
<path d="M206.432 69.4151H223.356V79.3964H193.512V26.3142H206.432V69.4151Z" fill="#58A993"/>
<path d="M242.438 26.3142V79.3964H229.518V26.3142H242.438Z" fill="#58A993"/>
<path d="M299.249 79.3964H286.329L264.721 46.6548V79.3964H251.801V26.3142H264.721L286.329 59.207V26.3142H299.249V79.3964Z" fill="#58A993"/>
<path d="M321.534 26.3142V79.3964H308.615V26.3142H321.534Z" fill="#58A993"/>
<path d="M328.706 52.7797C328.706 47.537 329.839 42.8741 332.106 38.7908C334.373 34.6572 337.521 31.4561 341.55 29.1876C345.63 26.8687 350.239 25.7093 355.377 25.7093C361.673 25.7093 367.063 27.3729 371.546 30.6999C376.029 34.027 379.026 38.564 380.537 44.3107H366.332C365.275 42.0927 363.763 40.4039 361.799 39.2445C359.885 38.0851 357.694 37.5053 355.226 37.5053C351.247 37.5053 348.023 38.8916 345.555 41.6642C343.087 44.4368 341.853 48.1419 341.853 52.7797C341.853 57.4175 343.087 61.1226 345.555 63.8952C348.023 66.6678 351.247 68.054 355.226 68.054C357.694 68.054 359.885 67.4743 361.799 66.3149C363.763 65.1555 365.275 63.4667 366.332 61.2486H380.537C379.026 66.9954 376.029 71.5324 371.546 74.8595C367.063 78.1361 361.673 79.7745 355.377 79.7745C350.239 79.7745 345.63 78.6402 341.55 76.3718C337.521 74.0529 334.373 70.8518 332.106 66.7686C329.839 62.6853 328.706 58.0224 328.706 52.7797Z" fill="#58A993"/>
<path d="M428.87 43.4034C428.87 46.4784 428.165 49.3014 426.755 51.8723C425.344 54.3928 423.178 56.4345 420.257 57.9972C417.336 59.5599 413.709 60.3413 409.377 60.3413H401.368V79.3964H388.449V26.3142H409.377C413.608 26.3142 417.185 27.0452 420.106 28.5071C423.027 29.969 425.218 31.9854 426.679 34.5563C428.14 37.1273 428.87 40.0763 428.87 43.4034ZM408.395 50.0575C410.863 50.0575 412.702 49.4778 413.91 48.3184C415.119 47.1589 415.724 45.5206 415.724 43.4034C415.724 41.2861 415.119 39.6478 413.91 38.4883C412.702 37.3289 410.863 36.7492 408.395 36.7492H401.368V50.0575H408.395Z" fill="#EF7820"/>
<path d="M454.787 79.9257C450.909 79.9257 447.433 79.2956 444.361 78.0353C441.288 76.7751 438.82 74.9099 436.956 72.4398C435.143 69.9696 434.186 66.9954 434.085 63.5171H447.836C448.038 65.4831 448.718 66.9954 449.876 68.054C451.035 69.0623 452.546 69.5664 454.41 69.5664C456.324 69.5664 457.835 69.1379 458.943 68.2809C460.051 67.3735 460.605 66.1385 460.605 64.5757C460.605 63.2651 460.152 62.1812 459.245 61.3243C458.389 60.4673 457.306 59.7615 455.996 59.207C454.737 58.6525 452.924 58.0224 450.556 57.3166C447.131 56.258 444.336 55.1994 442.17 54.1408C440.004 53.0822 438.14 51.5194 436.579 49.4526C435.017 47.3858 434.236 44.6888 434.236 41.3617C434.236 36.4215 436.025 32.5651 439.601 29.7926C443.177 26.9696 447.836 25.5581 453.578 25.5581C459.421 25.5581 464.131 26.9696 467.707 29.7926C471.283 32.5651 473.197 36.4467 473.449 41.4374H459.472C459.371 39.7234 458.741 38.3875 457.583 37.4297C456.424 36.4215 454.938 35.9174 453.125 35.9174C451.564 35.9174 450.304 36.3459 449.347 37.2029C448.39 38.0094 447.912 39.1941 447.912 40.7568C447.912 42.4708 448.718 43.8066 450.33 44.7644C451.941 45.7222 454.46 46.7557 457.885 47.8647C461.31 49.0241 464.08 50.1332 466.196 51.1918C468.362 52.2504 470.226 53.7879 471.787 55.8043C473.349 57.8207 474.129 60.4169 474.129 63.5927C474.129 66.6174 473.349 69.3647 471.787 71.8348C470.276 74.3049 468.06 76.271 465.138 77.7329C462.217 79.1948 458.766 79.9257 454.787 79.9257Z" fill="#EF7820"/>
<path d="M495 26.3142V79.3964H482.08V26.3142H495Z" fill="#EF7820"/>
<path d="M207.269 103.771C207.269 104.573 207.08 105.329 206.702 106.04C206.325 106.75 205.72 107.333 204.889 107.786C204.058 108.225 202.993 108.444 201.693 108.444H198.837V114.841H196.253V99.0754H201.693C202.902 99.0754 203.922 99.2871 204.753 99.7105C205.599 100.119 206.226 100.678 206.634 101.389C207.057 102.1 207.269 102.894 207.269 103.771ZM201.693 106.334C202.675 106.334 203.408 106.115 203.892 105.677C204.375 105.223 204.617 104.588 204.617 103.771C204.617 102.047 203.642 101.185 201.693 101.185H198.837V106.334H201.693Z" fill="#737373"/>
<path d="M214.924 115C213.866 115 212.914 114.819 212.068 114.456C211.222 114.077 210.557 113.548 210.073 112.868C209.59 112.187 209.348 111.393 209.348 110.486H212.113C212.174 111.166 212.438 111.726 212.907 112.164C213.39 112.603 214.063 112.822 214.924 112.822C215.816 112.822 216.511 112.611 217.009 112.187C217.508 111.749 217.757 111.189 217.757 110.508C217.757 109.979 217.599 109.548 217.281 109.215C216.979 108.883 216.594 108.626 216.125 108.444C215.672 108.263 215.037 108.066 214.221 107.854C213.194 107.582 212.355 107.31 211.705 107.038C211.071 106.75 210.527 106.312 210.073 105.722C209.62 105.132 209.393 104.346 209.393 103.363C209.393 102.455 209.62 101.661 210.073 100.981C210.527 100.3 211.161 99.7786 211.977 99.4156C212.793 99.0527 213.738 98.8712 214.811 98.8712C216.337 98.8712 217.584 99.2568 218.551 100.028C219.533 100.784 220.077 101.828 220.183 103.159H217.327C217.281 102.584 217.009 102.092 216.511 101.684C216.012 101.276 215.355 101.072 214.539 101.072C213.798 101.072 213.194 101.261 212.725 101.639C212.257 102.017 212.023 102.561 212.023 103.272C212.023 103.756 212.166 104.157 212.453 104.474C212.756 104.777 213.133 105.019 213.587 105.2C214.04 105.382 214.66 105.578 215.445 105.79C216.488 106.077 217.334 106.365 217.984 106.652C218.649 106.939 219.208 107.386 219.661 107.99C220.13 108.58 220.364 109.374 220.364 110.372C220.364 111.174 220.145 111.93 219.707 112.641C219.283 113.352 218.656 113.926 217.825 114.365C217.009 114.788 216.042 115 214.924 115Z" fill="#737373"/>
<path d="M225.997 99.0754V114.841H223.413V99.0754H225.997Z" fill="#737373"/>
<path d="M228.528 106.924C228.528 105.382 228.883 103.998 229.593 102.773C230.319 101.548 231.293 100.595 232.517 99.9147C233.756 99.219 235.109 98.8712 236.575 98.8712C238.252 98.8712 239.74 99.2871 241.04 100.119C242.355 100.936 243.307 102.1 243.896 103.612H240.791C240.383 102.781 239.816 102.16 239.091 101.752C238.365 101.344 237.527 101.14 236.575 101.14C235.532 101.14 234.603 101.374 233.787 101.843C232.971 102.312 232.328 102.985 231.86 103.862C231.407 104.739 231.18 105.76 231.18 106.924C231.18 108.089 231.407 109.11 231.86 109.987C232.328 110.864 232.971 111.544 233.787 112.028C234.603 112.497 235.532 112.732 236.575 112.732C237.527 112.732 238.365 112.527 239.091 112.119C239.816 111.711 240.383 111.091 240.791 110.259H243.896C243.307 111.771 242.355 112.936 241.04 113.752C239.74 114.569 238.252 114.977 236.575 114.977C235.094 114.977 233.741 114.637 232.517 113.957C231.293 113.261 230.319 112.301 229.593 111.076C228.883 109.851 228.528 108.467 228.528 106.924Z" fill="#737373"/>
<path d="M254.106 115C252.64 115 251.287 114.66 250.048 113.979C248.824 113.284 247.85 112.323 247.124 111.098C246.414 109.858 246.059 108.467 246.059 106.924C246.059 105.382 246.414 103.998 247.124 102.773C247.85 101.548 248.824 100.595 250.048 99.9147C251.287 99.219 252.64 98.8712 254.106 98.8712C255.587 98.8712 256.939 99.219 258.163 99.9147C259.402 100.595 260.377 101.548 261.087 102.773C261.797 103.998 262.152 105.382 262.152 106.924C262.152 108.467 261.797 109.858 261.087 111.098C260.377 112.323 259.402 113.284 258.163 113.979C256.939 114.66 255.587 115 254.106 115ZM254.106 112.754C255.148 112.754 256.078 112.52 256.894 112.051C257.71 111.567 258.344 110.887 258.798 110.009C259.266 109.117 259.5 108.089 259.5 106.924C259.5 105.76 259.266 104.739 258.798 103.862C258.344 102.985 257.71 102.312 256.894 101.843C256.078 101.374 255.148 101.14 254.106 101.14C253.063 101.14 252.134 101.374 251.318 101.843C250.502 102.312 249.859 102.985 249.391 103.862C248.938 104.739 248.711 105.76 248.711 106.924C248.711 108.089 248.938 109.117 249.391 110.009C249.859 110.887 250.502 111.567 251.318 112.051C252.134 112.52 253.063 112.754 254.106 112.754Z" fill="#737373"/>
<path d="M267.279 112.754H272.605V114.841H264.695V99.0754H267.279V112.754Z" fill="#737373"/>
<path d="M281.952 115C280.486 115 279.133 114.66 277.894 113.979C276.67 113.284 275.696 112.323 274.97 111.098C274.26 109.858 273.905 108.467 273.905 106.924C273.905 105.382 274.26 103.998 274.97 102.773C275.696 101.548 276.67 100.595 277.894 99.9147C279.133 99.219 280.486 98.8712 281.952 98.8712C283.432 98.8712 284.785 99.219 286.009 99.9147C287.248 100.595 288.223 101.548 288.933 102.773C289.643 103.998 289.998 105.382 289.998 106.924C289.998 108.467 289.643 109.858 288.933 111.098C288.223 112.323 287.248 113.284 286.009 113.979C284.785 114.66 283.432 115 281.952 115ZM281.952 112.754C282.994 112.754 283.924 112.52 284.74 112.051C285.556 111.567 286.19 110.887 286.644 110.009C287.112 109.117 287.346 108.089 287.346 106.924C287.346 105.76 287.112 104.739 286.644 103.862C286.19 102.985 285.556 102.312 284.74 101.843C283.924 101.374 282.994 101.14 281.952 101.14C280.909 101.14 279.98 101.374 279.164 101.843C278.348 102.312 277.705 102.985 277.237 103.862C276.784 104.739 276.557 105.76 276.557 106.924C276.557 108.089 276.784 109.117 277.237 110.009C277.705 110.887 278.348 111.567 279.164 112.051C279.98 112.52 280.909 112.754 281.952 112.754Z" fill="#737373"/>
<path d="M303.942 103.612C303.534 102.826 302.967 102.236 302.242 101.843C301.517 101.435 300.678 101.23 299.726 101.23C298.684 101.23 297.754 101.465 296.938 101.934C296.122 102.402 295.48 103.068 295.012 103.93C294.558 104.792 294.332 105.79 294.332 106.924C294.332 108.058 294.558 109.064 295.012 109.941C295.48 110.803 296.122 111.469 296.938 111.938C297.754 112.406 298.684 112.641 299.726 112.641C301.131 112.641 302.272 112.248 303.149 111.461C304.025 110.675 304.562 109.609 304.758 108.263H298.842V106.198H307.523V108.217C307.357 109.442 306.919 110.569 306.209 111.597C305.514 112.626 304.599 113.45 303.466 114.07C302.348 114.675 301.101 114.977 299.726 114.977C298.245 114.977 296.893 114.637 295.669 113.957C294.445 113.261 293.47 112.301 292.745 111.076C292.035 109.851 291.68 108.467 291.68 106.924C291.68 105.382 292.035 103.998 292.745 102.773C293.47 101.548 294.445 100.595 295.669 99.9147C296.908 99.219 298.26 98.8712 299.726 98.8712C301.403 98.8712 302.892 99.2871 304.191 100.119C305.506 100.936 306.458 102.1 307.047 103.612H303.942Z" fill="#737373"/>
<path d="M312.656 99.0754V114.841H310.072V99.0754H312.656Z" fill="#737373"/>
<path d="M325.546 111.62H318.95L317.816 114.841H315.119L320.763 99.0527H323.755L329.399 114.841H326.679L325.546 111.62ZM324.82 109.51L322.259 102.183L319.675 109.51H324.82Z" fill="#737373"/>
<path d="M348.655 106.924C348.655 105.382 349.01 103.998 349.721 102.773C350.446 101.548 351.421 100.595 352.645 99.9147C353.884 99.219 355.236 98.8712 356.702 98.8712C358.379 98.8712 359.868 99.2871 361.167 100.119C362.482 100.936 363.434 102.1 364.023 103.612H360.918C360.51 102.781 359.943 102.16 359.218 101.752C358.493 101.344 357.654 101.14 356.702 101.14C355.659 101.14 354.73 101.374 353.914 101.843C353.098 102.312 352.456 102.985 351.987 103.862C351.534 104.739 351.307 105.76 351.307 106.924C351.307 108.089 351.534 109.11 351.987 109.987C352.456 110.864 353.098 111.544 353.914 112.028C354.73 112.497 355.659 112.732 356.702 112.732C357.654 112.732 358.493 112.527 359.218 112.119C359.943 111.711 360.51 111.091 360.918 110.259H364.023C363.434 111.771 362.482 112.936 361.167 113.752C359.868 114.569 358.379 114.977 356.702 114.977C355.221 114.977 353.869 114.637 352.645 113.957C351.421 113.261 350.446 112.301 349.721 111.076C349.01 109.851 348.655 108.467 348.655 106.924Z" fill="#737373"/>
<path d="M369.632 112.754H374.958V114.841H367.048V99.0754H369.632V112.754Z" fill="#737373"/>
<path d="M379.703 99.0754V114.841H377.119V99.0754H379.703ZM380.746 95.6953L375.737 98.168V96.2625L380.746 93.4949V95.6953Z" fill="#737373"/>
<path d="M396.038 114.841H393.454L385.68 103.068V114.841H383.096V99.0527H385.68L393.454 110.803V99.0527H396.038V114.841Z" fill="#737373"/>
<path d="M402.015 99.0754V114.841H399.431V99.0754H402.015Z" fill="#737373"/>
<path d="M404.547 106.924C404.547 105.382 404.902 103.998 405.612 102.773C406.337 101.548 407.312 100.595 408.536 99.9147C409.775 99.219 411.127 98.8712 412.593 98.8712C414.27 98.8712 415.759 99.2871 417.058 100.119C418.373 100.936 419.325 102.1 419.914 103.612H416.809C416.401 102.781 415.834 102.16 415.109 101.752C414.384 101.344 413.545 101.14 412.593 101.14C411.551 101.14 410.621 101.374 409.805 101.843C408.989 102.312 408.347 102.985 407.879 103.862C407.425 104.739 407.199 105.76 407.199 106.924C407.199 108.089 407.425 109.11 407.879 109.987C408.347 110.864 408.989 111.544 409.805 112.028C410.621 112.497 411.551 112.732 412.593 112.732C413.545 112.732 414.384 112.527 415.109 112.119C415.834 111.711 416.401 111.091 416.809 110.259H419.914C419.325 111.771 418.373 112.936 417.058 113.752C415.759 114.569 414.27 114.977 412.593 114.977C411.112 114.977 409.76 114.637 408.536 113.957C407.312 113.261 406.337 112.301 405.612 111.076C404.902 109.851 404.547 108.467 404.547 106.924Z" fill="#737373"/>
<path d="M432.436 111.62H425.84L424.707 114.841H422.01L427.654 99.0527H430.646L436.289 114.841H433.569L432.436 111.62ZM431.711 109.51L429.15 102.183L426.566 109.51H431.711Z" fill="#737373"/>
<path d="M339.996 107.989C339.996 108.641 339.467 109.17 338.815 109.17C338.163 109.17 337.635 108.641 337.635 107.989C337.635 107.336 338.163 106.807 338.815 106.807C339.467 106.807 339.996 107.336 339.996 107.989Z" fill="#EF7820"/>
</g>
<defs>
<linearGradient id="paint0_linear_396_551" x1="247.5" y1="0" x2="247.5" y2="115" gradientUnits="userSpaceOnUse">
<stop stop-color="#9B7CB9"/>
<stop offset="1" stop-color="#755690"/>
</linearGradient>
<linearGradient id="paint1_linear_396_551" x1="247.5" y1="0" x2="247.5" y2="115" gradientUnits="userSpaceOnUse">
<stop stop-color="#9B7CB9"/>
<stop offset="1" stop-color="#755690"/>
</linearGradient>
</defs>
</svg>
