<svg width="255" height="59" viewBox="0 0 255 59" fill="none" xmlns="http://www.w3.org/2000/svg">
<path d="M30.3507 54.7601C37.354 54.0446 43.8167 50.6832 48.411 45.3665C53.0054 40.0497 55.3826 33.1812 55.0544 26.1719C54.7262 19.1626 51.7175 12.5446 46.6464 7.67744C41.5752 2.81026 34.8266 0.0633904 27.7868 0.00108351C20.7469 -0.0612234 13.9505 2.56576 8.79336 7.34242C3.63627 12.1191 0.510142 18.6827 0.0571234 25.6851C-0.395896 32.6875 1.85859 39.597 6.35748 44.9943C10.8564 50.3915 17.2581 53.8667 24.2476 54.7061L24.6023 51.7718C18.3653 51.0228 12.6528 47.9218 8.63827 43.1056C4.62374 38.2894 2.61197 32.1238 3.01622 25.8753C3.42046 19.6268 6.21003 13.7698 10.8119 9.50741C15.4138 5.24502 21.4785 2.90086 27.7604 2.95646C34.0423 3.01206 40.0644 5.46319 44.5896 9.80637C49.1148 14.1495 51.7995 20.055 52.0924 26.3097C52.3852 32.5644 50.2639 38.6934 46.1642 43.4377C42.0645 48.1821 36.2977 51.1816 30.0483 51.82L30.3507 54.7601Z" fill="#9B7CB9"/>
<path d="M30.4313 39.7847C29.6889 43.5076 29.6827 44.6612 30.2641 45.3753C31.1647 46.2886 31.813 46.5914 33.1389 46.8815C35.822 47.2933 36.9858 47.0639 38.7092 46.1795C40.3546 45.2246 40.9129 44.3055 41.3611 42.0854C44.3242 41.8178 45.8598 41.4947 47.2294 39.0271C47.9631 37.4266 47.9984 36.5924 47.5486 35.1904C48.9663 34.3381 49.7943 33.5846 50.3812 31.6841C50.9681 29.7837 50.3863 25.7493 48.0417 23.6539C49.2422 19.1378 48.1599 15.1599 45.3357 13.4307C44.0292 12.6832 43.0448 12.5439 41.4212 12.707C41.3049 11.6136 41.2355 11.1018 40.6575 10.1902C40.0795 9.27858 38.1267 7.51072 36.569 6.76966C35.0113 6.0286 33.9809 6.09968 32.1298 6.63159C30.395 7.38829 29.653 7.87269 29.1817 9.9555C28.7104 12.0383 29.2346 19.426 29.2346 19.426L28.947 34.2136C28.947 34.2136 28.9279 34.991 29.1686 34.967C29.4094 34.9429 30.4313 34.3398 31.9795 32.7894C32.6346 32.0571 32.1959 30.2538 32.9899 28.478C33.7838 26.7022 33.589 26.4679 34.3276 25.3393C34.8496 24.2626 35.5884 22.8867 35.3331 22.2822C35.0777 21.6776 34.1589 20.9163 33.9687 20.7172C33.7785 20.5181 32.6076 20.8096 32.3259 20.6681C32.0442 20.5266 31.3894 20.3012 31.3192 18.8784C31.249 17.4555 31.8556 17.2011 32.4695 17.2609C33.0834 17.3207 33.7719 17.3973 34.1838 18.3498C34.5957 19.3023 34.3911 19.2277 34.8103 20.4945C35.2295 21.7613 35.5193 21.3513 35.5687 21.2408C35.6181 21.1302 35.7202 20.5713 35.7202 20.5713C35.785 19.1182 35.7797 17.536 35.6326 16.7994C35.4856 16.0628 34.5776 14.5298 34.4789 14.2731C34.3801 14.0164 34.0861 12.5433 34.9839 12.0416C35.8817 11.5399 36.1109 11.7432 37.1145 12.6769C37.5978 13.1861 37.8923 13.3989 37.6976 14.6059C37.5029 15.8128 37.1465 15.6545 36.8626 16.2161C36.5787 16.7776 36.9569 17.8788 37.3205 18.3514C37.6842 18.824 39.4506 16.5633 39.5493 16.8201C39.6481 17.0768 39.3114 18.5645 39.1117 18.7541C38.9119 18.9437 38.2139 19.2558 38.2139 19.2558C37.576 19.6306 37.4297 19.9679 37.4126 20.7172C37.5133 22.0008 37.3005 23.0385 36.3353 25.4779C36.3353 25.4779 35.3416 27.4433 35.6979 27.6016C36.0542 27.7598 36.3454 27.5126 36.3454 27.5126C37.488 26.7852 38.2312 26.428 39.6286 25.8274C39.6286 25.8274 41.5735 24.8576 41.5757 24.1546C41.5779 23.4515 41.3468 23.0869 41.4646 22.5662C41.5824 22.0455 41.7178 21.6799 42.5066 21.0807C43.4586 20.4518 44.8751 19.9716 45.4626 20.4945C46.0502 21.0174 46.2277 22.6233 45.4626 23.8677C45.4626 23.8677 44.2205 25.013 43.6559 25.013C43.0912 25.013 43.2827 24.9291 42.7266 24.9605C42.1705 24.9918 40.9057 26.4044 41.0371 26.5349C41.0371 26.5349 41.2924 27.1395 42.4382 26.9281C43.5841 26.7166 44.5879 26.786 44.7782 26.9851C44.9684 27.1842 45.1092 27.5064 44.7664 28.0768C44.5627 28.3339 44.5908 28.5063 42.8479 28.5836C41.105 28.6608 41.3384 28.3224 39.9277 28.3179C38.517 28.3135 37.4985 28.7969 36.0065 29.7034C34.8799 30.4915 34.279 31.0592 33.3255 32.5401C32.7597 33.3912 32.4159 34.1336 32.5315 34.3159C32.6471 34.4982 32.9793 34.4166 33.5786 33.8477C34.1779 33.2789 35.3912 33.2188 36.4432 33.3192L39.4621 33.8415L42.7217 34.3398C43.7658 34.4874 43.9809 35.0137 43.8799 35.46C43.7789 35.9063 43.1291 36.6983 40.3678 36.0775L36.5616 35.2219C34.9621 35.1522 34.157 35.227 33.1241 35.8562C31.499 37.2104 30.8321 38.0462 30.4313 39.7847Z" fill="url(#paint0_linear_396_2450)"/>
<path d="M24.8458 39.7847C25.5882 43.5076 25.5943 44.6612 25.0129 45.3753C24.1124 46.2886 23.4641 46.5914 22.1382 46.8815C19.4551 47.2933 18.2913 47.0639 16.5678 46.1795C14.9225 45.2246 14.3642 44.3055 13.916 42.0854C10.9529 41.8178 9.41726 41.4947 8.04766 39.0271C7.31393 37.4266 7.27868 36.5924 7.72844 35.1904C6.31072 34.3381 5.4828 33.5846 4.89588 31.6841C4.30897 29.7837 4.89079 25.7493 7.23539 23.6539C6.0348 19.1378 7.11712 15.1599 9.94135 13.4307C11.2479 12.6832 12.2323 12.5439 13.8558 12.707C13.9722 11.6136 14.0416 11.1018 14.6196 10.1902C15.1976 9.27858 17.1503 7.51072 18.7081 6.76966C20.2658 6.0286 21.2961 6.09968 23.1472 6.63159C24.8821 7.38829 25.624 7.87269 26.0954 9.9555C26.5667 12.0383 26.0425 19.426 26.0425 19.426L26.3301 34.2136C26.3301 34.2136 26.3491 34.991 26.1084 34.967C25.8677 34.9429 24.8458 34.3398 23.2975 32.7894C22.6425 32.0571 23.0812 30.2538 22.2872 28.478C21.4932 26.7022 21.6881 26.4679 20.9495 25.3393C20.4275 24.2626 19.6887 22.8867 19.944 22.2822C20.1993 21.6776 21.1181 20.9163 21.3084 20.7172C21.4986 20.5181 22.6694 20.8096 22.9511 20.6681C23.2328 20.5266 23.8877 20.3012 23.9578 18.8784C24.028 17.4555 23.4214 17.2011 22.8075 17.2609C22.1937 17.3207 21.5051 17.3973 21.0933 18.3498C20.6814 19.3023 20.886 19.2277 20.4668 20.4945C20.0476 21.7613 19.7577 21.3513 19.7083 21.2408C19.6589 21.1302 19.5568 20.5713 19.5568 20.5713C19.4921 19.1182 19.4974 17.536 19.6444 16.7994C19.7915 16.0628 20.6994 14.5298 20.7982 14.2731C20.8969 14.0164 21.191 12.5433 20.2932 12.0416C19.3954 11.5399 19.1662 11.7432 18.1625 12.6769C17.6792 13.1861 17.3848 13.3989 17.5795 14.6059C17.7742 15.8128 18.1305 15.6545 18.4144 16.2161C18.6984 16.7776 18.3201 17.8788 17.9565 18.3514C17.5929 18.824 15.8265 16.5633 15.7277 16.8201C15.629 17.0768 15.9656 18.5645 16.1654 18.7541C16.3651 18.9437 17.0632 19.2558 17.0632 19.2558C17.7011 19.6306 17.8474 19.9679 17.8645 20.7172C17.7638 22.0008 17.9766 23.0385 18.9418 25.4779C18.9418 25.4779 19.9355 27.4433 19.5792 27.6016C19.2228 27.7598 18.9316 27.5126 18.9316 27.5126C17.789 26.7852 17.0458 26.428 15.6484 25.8274C15.6484 25.8274 13.7036 24.8576 13.7013 24.1546C13.6991 23.4515 13.9303 23.0869 13.8125 22.5662C13.6946 22.0455 13.5593 21.6799 12.7705 21.0807C11.8185 20.4518 10.4019 19.9716 9.81441 20.4945C9.2269 21.0174 9.04938 22.6233 9.81441 23.8677C9.81441 23.8677 11.0566 25.013 11.6212 25.013C12.1858 25.013 11.9944 24.9291 12.5504 24.9605C13.1065 24.9918 14.3714 26.4044 14.24 26.5349C14.24 26.5349 13.9847 27.1395 12.8388 26.9281C11.693 26.7166 10.6891 26.786 10.4989 26.9851C10.3087 27.1842 10.1679 27.5064 10.5107 28.0768C10.7143 28.3339 10.6863 28.5063 12.4292 28.5836C14.1721 28.6608 13.9386 28.3224 15.3493 28.3179C16.76 28.3135 17.7786 28.7969 19.2705 29.7034C20.3971 30.4915 20.9981 31.0592 21.9516 32.5401C22.5174 33.3912 22.8611 34.1336 22.7455 34.3159C22.6299 34.4982 22.2978 34.4166 21.6985 33.8477C21.0992 33.2789 19.8859 33.2188 18.8339 33.3192L15.815 33.8415L12.5553 34.3398C11.5113 34.4874 11.2961 35.0137 11.3971 35.46C11.4981 35.9063 12.1479 36.6983 14.9093 36.0775L18.7155 35.2219C20.3149 35.1522 21.1201 35.227 22.153 35.8562C23.7781 37.2104 24.4449 38.0462 24.8458 39.7847Z" fill="url(#paint1_linear_396_2450)"/>
<path d="M68.9115 27.0783C68.9115 24.3886 69.4954 21.9963 70.663 19.9014C71.8307 17.7806 73.4524 16.1383 75.5283 14.9745C77.6301 13.7848 80.0043 13.19 82.651 13.19C85.8945 13.19 88.671 14.0435 90.9803 15.7504C93.2897 17.4573 94.8336 19.785 95.6121 22.7333H88.2947C87.7498 21.5954 86.9714 20.729 85.9594 20.1341C84.9734 19.5393 83.8446 19.2419 82.5732 19.2419C80.5233 19.2419 78.8626 19.9531 77.5912 21.3755C76.3197 22.798 75.684 24.6989 75.684 27.0783C75.684 29.4577 76.3197 31.3586 77.5912 32.781C78.8626 34.2035 80.5233 34.9147 82.5732 34.9147C83.8446 34.9147 84.9734 34.6173 85.9594 34.0224C86.9714 33.4276 87.7498 32.5612 88.2947 31.4232H95.6121C94.8336 34.3716 93.2897 36.6992 90.9803 38.4062C88.671 40.0872 85.8945 40.9278 82.651 40.9278C80.0043 40.9278 77.6301 40.3459 75.5283 39.182C73.4524 37.9924 71.8307 36.3501 70.663 34.2552C69.4954 32.1603 68.9115 29.768 68.9115 27.0783Z" fill="#9B7CB9"/>
<path d="M106.344 35.613H115.062V40.7338H99.6879V13.5003H106.344V35.613Z" fill="#9B7CB9"/>
<path d="M124.892 13.5003V40.7338H118.237V13.5003H124.892Z" fill="#9B7CB9"/>
<path d="M154.159 40.7338H147.503L136.371 23.936V40.7338H129.716V13.5003H136.371L147.503 30.3758V13.5003H154.159V40.7338Z" fill="#9B7CB9"/>
<path d="M165.639 13.5003V40.7338H158.983V13.5003H165.639Z" fill="#9B7CB9"/>
<path d="M169.333 27.0783C169.333 24.3886 169.917 21.9963 171.085 19.9014C172.253 17.7806 173.874 16.1383 175.95 14.9745C178.052 13.7848 180.426 13.19 183.073 13.19C186.316 13.19 189.093 14.0435 191.402 15.7504C193.712 17.4573 195.256 19.785 196.034 22.7333H188.717C188.172 21.5954 187.393 20.729 186.381 20.1341C185.395 19.5393 184.267 19.2419 182.995 19.2419C180.945 19.2419 179.285 19.9531 178.013 21.3755C176.742 22.798 176.106 24.6989 176.106 27.0783C176.106 29.4577 176.742 31.3586 178.013 32.781C179.285 34.2035 180.945 34.9147 182.995 34.9147C184.267 34.9147 185.395 34.6173 186.381 34.0224C187.393 33.4276 188.172 32.5612 188.717 31.4232H196.034C195.256 34.3716 193.712 36.6992 191.402 38.4062C189.093 40.0872 186.316 40.9278 183.073 40.9278C180.426 40.9278 178.052 40.3459 175.95 39.182C173.874 37.9924 172.253 36.3501 171.085 34.2552C169.917 32.1603 169.333 29.768 169.333 27.0783Z" fill="#9B7CB9"/>
<path d="M220.933 22.2678C220.933 23.8454 220.57 25.2938 219.843 26.6127C219.117 27.9059 218.001 28.9533 216.496 29.7551C214.991 30.5568 213.123 30.9577 210.891 30.9577H206.766V40.7338H200.11V13.5003H210.891C213.071 13.5003 214.913 13.8754 216.418 14.6254C217.923 15.3754 219.052 16.4099 219.804 17.7289C220.557 19.0479 220.933 20.5609 220.933 22.2678ZM210.385 25.6817C211.657 25.6817 212.604 25.3843 213.227 24.7894C213.849 24.1946 214.161 23.354 214.161 22.2678C214.161 21.1816 213.849 20.341 213.227 19.7462C212.604 19.1514 211.657 18.8539 210.385 18.8539H206.766V25.6817H210.385Z" fill="url(#paint2_linear_396_2450)"/>
<path d="M234.284 41.0054C232.286 41.0054 230.496 40.6821 228.913 40.0355C227.33 39.3889 226.059 38.432 225.099 37.1647C224.165 35.8975 223.672 34.3716 223.62 32.587H230.704C230.807 33.5957 231.158 34.3716 231.754 34.9147C232.351 35.4319 233.13 35.6906 234.09 35.6906C235.076 35.6906 235.854 35.4707 236.425 35.0311C236.996 34.5655 237.281 33.9319 237.281 33.1302C237.281 32.4577 237.048 31.9017 236.581 31.462C236.14 31.0223 235.582 30.6603 234.907 30.3758C234.258 30.0913 233.324 29.768 232.105 29.4059C230.34 28.8628 228.9 28.3197 227.784 27.7766C226.669 27.2335 225.709 26.4317 224.904 25.3713C224.1 24.311 223.698 22.9273 223.698 21.2204C223.698 18.6858 224.619 16.7073 226.461 15.2849C228.303 13.8366 230.704 13.1124 233.662 13.1124C236.672 13.1124 239.098 13.8366 240.94 15.2849C242.782 16.7073 243.768 18.6988 243.898 21.2592H236.698C236.646 20.3798 236.321 19.6945 235.724 19.2031C235.128 18.6858 234.362 18.4272 233.428 18.4272C232.624 18.4272 231.975 18.647 231.482 19.0867C230.989 19.5005 230.742 20.1083 230.742 20.91C230.742 21.7894 231.158 22.4747 231.988 22.9661C232.818 23.4575 234.116 23.9877 235.88 24.5567C237.645 25.1515 239.072 25.7205 240.162 26.2636C241.277 26.8067 242.237 27.5955 243.042 28.63C243.846 29.6646 244.248 30.9965 244.248 32.6258C244.248 34.1776 243.846 35.5871 243.042 36.8544C242.263 38.1217 241.122 39.1303 239.617 39.8803C238.112 40.6304 236.334 41.0054 234.284 41.0054Z" fill="url(#paint3_linear_396_2450)"/>
<path d="M255 13.5003V40.7338H248.344V13.5003H255Z" fill="url(#paint4_linear_396_2450)"/>
<path d="M106.775 53.2391C106.775 53.6503 106.678 54.0382 106.483 54.4029C106.288 54.7676 105.977 55.0663 105.549 55.299C105.121 55.5241 104.572 55.6366 103.902 55.6366H102.431V58.9185H101.1V50.83H103.902C104.525 50.83 105.051 50.9386 105.479 51.1558C105.915 51.3653 106.238 51.6524 106.448 52.0171C106.666 52.3817 106.775 52.7891 106.775 53.2391ZM103.902 54.5542C104.408 54.5542 104.786 54.4417 105.035 54.2167C105.284 53.9839 105.409 53.6581 105.409 53.2391C105.409 52.3546 104.907 51.9123 103.902 51.9123H102.431V54.5542H103.902Z" fill="#737373"/>
<path d="M110.718 59C110.174 59 109.683 58.9069 109.247 58.7207C108.811 58.5267 108.469 58.2552 108.22 57.906C107.971 57.5569 107.846 57.1495 107.846 56.684H109.271C109.302 57.0331 109.438 57.3202 109.679 57.5452C109.928 57.7702 110.275 57.8827 110.718 57.8827C111.178 57.8827 111.536 57.7741 111.793 57.5569C112.05 57.3319 112.178 57.0448 112.178 56.6956C112.178 56.4241 112.096 56.2029 111.933 56.0323C111.777 55.8616 111.579 55.7297 111.337 55.6366C111.104 55.5434 110.777 55.4426 110.356 55.334C109.827 55.1943 109.395 55.0546 109.06 54.915C108.733 54.7676 108.453 54.5426 108.22 54.24C107.986 53.9374 107.869 53.5339 107.869 53.0296C107.869 52.5641 107.986 52.1567 108.22 51.8076C108.453 51.4584 108.78 51.1907 109.2 51.0045C109.621 50.8183 110.107 50.7252 110.66 50.7252C111.446 50.7252 112.088 50.9231 112.587 51.3188C113.093 51.7067 113.373 52.2421 113.427 52.9248H111.956C111.933 52.63 111.793 52.3778 111.536 52.1684C111.279 51.9589 110.94 51.8541 110.52 51.8541C110.138 51.8541 109.827 51.9511 109.586 52.1451C109.344 52.3391 109.224 52.6184 109.224 52.983C109.224 53.2313 109.298 53.4369 109.446 53.5999C109.601 53.755 109.796 53.8792 110.029 53.9723C110.263 54.0654 110.582 54.1663 110.987 54.2749C111.524 54.4223 111.96 54.5697 112.295 54.7171C112.637 54.8646 112.925 55.0934 113.159 55.4038C113.4 55.7064 113.521 56.1137 113.521 56.6258C113.521 57.037 113.408 57.425 113.182 57.7896C112.964 58.1543 112.641 58.4491 112.213 58.6741C111.793 58.8914 111.294 59 110.718 59Z" fill="#737373"/>
<path d="M116.423 50.83V58.9185H115.091V50.83H116.423Z" fill="#737373"/>
<path d="M117.727 54.8568C117.727 54.0654 117.91 53.3555 118.275 52.727C118.649 52.0985 119.151 51.6097 119.782 51.2606C120.42 50.9037 121.117 50.7252 121.872 50.7252C122.736 50.7252 123.503 50.9386 124.172 51.3653C124.849 51.7843 125.34 52.3817 125.643 53.1576H124.044C123.833 52.7309 123.542 52.4128 123.168 52.2033C122.794 51.9938 122.362 51.889 121.872 51.889C121.335 51.889 120.856 52.0093 120.436 52.2498C120.015 52.4904 119.684 52.8356 119.443 53.2856C119.21 53.7356 119.093 54.2594 119.093 54.8568C119.093 55.4542 119.21 55.9779 119.443 56.428C119.684 56.878 120.015 57.2271 120.436 57.4754C120.856 57.7159 121.335 57.8362 121.872 57.8362C122.362 57.8362 122.794 57.7314 123.168 57.5219C123.542 57.3125 123.833 56.9943 124.044 56.5676H125.643C125.34 57.3435 124.849 57.9409 124.172 58.3599C123.503 58.7789 122.736 58.9884 121.872 58.9884C121.109 58.9884 120.412 58.8138 119.782 58.4646C119.151 58.1077 118.649 57.6151 118.275 56.9866C117.91 56.3581 117.727 55.6482 117.727 54.8568Z" fill="#737373"/>
<path d="M130.903 59C130.148 59 129.451 58.8254 128.813 58.4763C128.182 58.1194 127.68 57.6267 127.307 56.9982C126.941 56.362 126.758 55.6482 126.758 54.8568C126.758 54.0654 126.941 53.3555 127.307 52.727C127.68 52.0985 128.182 51.6097 128.813 51.2606C129.451 50.9037 130.148 50.7252 130.903 50.7252C131.666 50.7252 132.362 50.9037 132.993 51.2606C133.631 51.6097 134.133 52.0985 134.499 52.727C134.865 53.3555 135.048 54.0654 135.048 54.8568C135.048 55.6482 134.865 56.362 134.499 56.9982C134.133 57.6267 133.631 58.1194 132.993 58.4763C132.362 58.8254 131.666 59 130.903 59ZM130.903 57.8478C131.44 57.8478 131.919 57.7276 132.339 57.487C132.759 57.2388 133.086 56.8896 133.32 56.4396C133.561 55.9818 133.682 55.4542 133.682 54.8568C133.682 54.2594 133.561 53.7356 133.32 53.2856C133.086 52.8356 132.759 52.4904 132.339 52.2498C131.919 52.0093 131.44 51.889 130.903 51.889C130.366 51.889 129.887 52.0093 129.467 52.2498C129.046 52.4904 128.715 52.8356 128.474 53.2856C128.241 53.7356 128.124 54.2594 128.124 54.8568C128.124 55.4542 128.241 55.9818 128.474 56.4396C128.715 56.8896 129.046 57.2388 129.467 57.487C129.887 57.7276 130.366 57.8478 130.903 57.8478Z" fill="#737373"/>
<path d="M137.689 57.8478H140.433V58.9185H136.358V50.83H137.689V57.8478Z" fill="#737373"/>
<path d="M145.248 59C144.493 59 143.796 58.8254 143.158 58.4763C142.527 58.1194 142.025 57.6267 141.651 56.9982C141.286 56.362 141.103 55.6482 141.103 54.8568C141.103 54.0654 141.286 53.3555 141.651 52.727C142.025 52.0985 142.527 51.6097 143.158 51.2606C143.796 50.9037 144.493 50.7252 145.248 50.7252C146.011 50.7252 146.707 50.9037 147.338 51.2606C147.976 51.6097 148.478 52.0985 148.844 52.727C149.21 53.3555 149.393 54.0654 149.393 54.8568C149.393 55.6482 149.21 56.362 148.844 56.9982C148.478 57.6267 147.976 58.1194 147.338 58.4763C146.707 58.8254 146.011 59 145.248 59ZM145.248 57.8478C145.785 57.8478 146.264 57.7276 146.684 57.487C147.104 57.2388 147.431 56.8896 147.665 56.4396C147.906 55.9818 148.027 55.4542 148.027 54.8568C148.027 54.2594 147.906 53.7356 147.665 53.2856C147.431 52.8356 147.104 52.4904 146.684 52.2498C146.264 52.0093 145.785 51.889 145.248 51.889C144.711 51.889 144.232 52.0093 143.812 52.2498C143.391 52.4904 143.06 52.8356 142.819 53.2856C142.586 53.7356 142.469 54.2594 142.469 54.8568C142.469 55.4542 142.586 55.9818 142.819 56.4396C143.06 56.8896 143.391 57.2388 143.812 57.487C144.232 57.7276 144.711 57.8478 145.248 57.8478Z" fill="#737373"/>
<path d="M156.576 53.1576C156.366 52.7542 156.074 52.4516 155.7 52.2498C155.327 52.0403 154.895 51.9356 154.404 51.9356C153.867 51.9356 153.389 52.0559 152.968 52.2964C152.548 52.5369 152.217 52.8783 151.976 53.3205C151.742 53.7628 151.625 54.2749 151.625 54.8568C151.625 55.4387 151.742 55.9547 151.976 56.4047C152.217 56.8469 152.548 57.1883 152.968 57.4288C153.389 57.6694 153.867 57.7896 154.404 57.7896C155.128 57.7896 155.716 57.5879 156.168 57.1844C156.619 56.781 156.895 56.234 156.997 55.5434H153.949V54.4844H158.421V55.5202C158.336 56.1486 158.11 56.7267 157.744 57.2543C157.386 57.7819 156.915 58.2047 156.331 58.5228C155.755 58.8332 155.113 58.9884 154.404 58.9884C153.641 58.9884 152.945 58.8138 152.314 58.4646C151.684 58.1077 151.182 57.6151 150.808 56.9866C150.442 56.3581 150.259 55.6482 150.259 54.8568C150.259 54.0654 150.442 53.3555 150.808 52.727C151.182 52.0985 151.684 51.6097 152.314 51.2606C152.953 50.9037 153.649 50.7252 154.404 50.7252C155.268 50.7252 156.035 50.9386 156.705 51.3653C157.382 51.7843 157.872 52.3817 158.176 53.1576H156.576Z" fill="#737373"/>
<path d="M161.065 50.83V58.9185H159.734V50.83H161.065Z" fill="#737373"/>
<path d="M167.705 57.2659H164.307L163.724 58.9185H162.334L165.242 50.8183H166.783L169.69 58.9185H168.289L167.705 57.2659ZM167.332 56.1835L166.012 52.4244L164.681 56.1835H167.332Z" fill="#737373"/>
<path d="M179.61 54.8568C179.61 54.0654 179.793 53.3555 180.159 52.727C180.533 52.0985 181.035 51.6097 181.665 51.2606C182.304 50.9037 183 50.7252 183.756 50.7252C184.62 50.7252 185.386 50.9386 186.056 51.3653C186.733 51.7843 187.224 52.3817 187.527 53.1576H185.927C185.717 52.7309 185.425 52.4128 185.052 52.2033C184.678 51.9938 184.246 51.889 183.756 51.889C183.218 51.889 182.74 52.0093 182.319 52.2498C181.899 52.4904 181.568 52.8356 181.327 53.2856C181.093 53.7356 180.977 54.2594 180.977 54.8568C180.977 55.4542 181.093 55.9779 181.327 56.428C181.568 56.878 181.899 57.2271 182.319 57.4754C182.74 57.7159 183.218 57.8362 183.756 57.8362C184.246 57.8362 184.678 57.7314 185.052 57.5219C185.425 57.3125 185.717 56.9943 185.927 56.5676H187.527C187.224 57.3435 186.733 57.9409 186.056 58.3599C185.386 58.7789 184.62 58.9884 183.756 58.9884C182.993 58.9884 182.296 58.8138 181.665 58.4646C181.035 58.1077 180.533 57.6151 180.159 56.9866C179.793 56.3581 179.61 55.6482 179.61 54.8568Z" fill="#737373"/>
<path d="M190.416 57.8478H193.16V58.9185H189.085V50.83H190.416V57.8478Z" fill="#737373"/>
<path d="M195.605 50.83V58.9185H194.274V50.83H195.605ZM196.142 49.0959L193.561 50.3644V49.3868L196.142 47.967V49.0959Z" fill="#737373"/>
<path d="M204.02 58.9185H202.689L198.683 52.8783V58.9185H197.352V50.8183H198.683L202.689 56.8469V50.8183H204.02V58.9185Z" fill="#737373"/>
<path d="M207.099 50.83V58.9185H205.768V50.83H207.099Z" fill="#737373"/>
<path d="M208.403 54.8568C208.403 54.0654 208.586 53.3555 208.952 52.727C209.325 52.0985 209.827 51.6097 210.458 51.2606C211.096 50.9037 211.793 50.7252 212.548 50.7252C213.412 50.7252 214.179 50.9386 214.848 51.3653C215.526 51.7843 216.016 52.3817 216.32 53.1576H214.72C214.51 52.7309 214.218 52.4128 213.844 52.2033C213.47 51.9938 213.038 51.889 212.548 51.889C212.011 51.889 211.532 52.0093 211.112 52.2498C210.691 52.4904 210.361 52.8356 210.119 53.2856C209.886 53.7356 209.769 54.2594 209.769 54.8568C209.769 55.4542 209.886 55.9779 210.119 56.428C210.361 56.878 210.691 57.2271 211.112 57.4754C211.532 57.7159 212.011 57.8362 212.548 57.8362C213.038 57.8362 213.47 57.7314 213.844 57.5219C214.218 57.3125 214.51 56.9943 214.72 56.5676H216.32C216.016 57.3435 215.526 57.9409 214.848 58.3599C214.179 58.7789 213.412 58.9884 212.548 58.9884C211.785 58.9884 211.088 58.8138 210.458 58.4646C209.827 58.1077 209.325 57.6151 208.952 56.9866C208.586 56.3581 208.403 55.6482 208.403 54.8568Z" fill="#737373"/>
<path d="M222.77 57.2659H219.372L218.788 58.9185H217.399L220.306 50.8183H221.848L224.755 58.9185H223.354L222.77 57.2659ZM222.396 56.1835L221.077 52.4244L219.746 56.1835H222.396Z" fill="#737373"/>
<path d="M175.149 55.4028C175.149 55.7376 174.877 56.009 174.541 56.009C174.205 56.009 173.933 55.7376 173.933 55.4028C173.933 55.068 174.205 54.7967 174.541 54.7967C174.877 54.7967 175.149 55.068 175.149 55.4028Z" fill="url(#paint5_linear_396_2450)"/>
<defs>
<linearGradient id="paint0_linear_396_2450" x1="215.475" y1="7.965" x2="200.411" y2="83.0127" gradientUnits="userSpaceOnUse">
<stop stop-color="#7AC2AC"/>
<stop offset="1" stop-color="#58A993"/>
</linearGradient>
<linearGradient id="paint1_linear_396_2450" x1="127.5" y1="0" x2="127.5" y2="59" gradientUnits="userSpaceOnUse">
<stop stop-color="#9B7CB9"/>
<stop offset="1" stop-color="#755690"/>
</linearGradient>
<linearGradient id="paint2_linear_396_2450" x1="215.475" y1="7.965" x2="200.411" y2="83.0127" gradientUnits="userSpaceOnUse">
<stop stop-color="#7AC2AC"/>
<stop offset="1" stop-color="#58A993"/>
</linearGradient>
<linearGradient id="paint3_linear_396_2450" x1="215.475" y1="7.965" x2="200.411" y2="83.0127" gradientUnits="userSpaceOnUse">
<stop stop-color="#7AC2AC"/>
<stop offset="1" stop-color="#58A993"/>
</linearGradient>
<linearGradient id="paint4_linear_396_2450" x1="215.475" y1="7.965" x2="200.411" y2="83.0127" gradientUnits="userSpaceOnUse">
<stop stop-color="#7AC2AC"/>
<stop offset="1" stop-color="#58A993"/>
</linearGradient>
<linearGradient id="paint5_linear_396_2450" x1="215.475" y1="7.965" x2="200.411" y2="83.0127" gradientUnits="userSpaceOnUse">
<stop stop-color="#7AC2AC"/>
<stop offset="1" stop-color="#58A993"/>
</linearGradient>
</defs>
</svg>
