<svg width="70" height="72" viewBox="0 0 70 72" fill="none" xmlns="http://www.w3.org/2000/svg">
<path d="M56.5 40.6749V30.1749C57.3358 28.2243 58.4085 27.1293 61 25.1749C63.0012 24.0007 64.3328 23.7918 67 24.1749V52.1749L57.5 61.6749V69.1749H39V53.6749L51 40.6749H56.5ZM56.5 40.6749V47.6753L47.5 56.6753" stroke="#F3FAF7" stroke-width="5" stroke-linecap="round" stroke-linejoin="round"/>
<path d="M13.5 40.6749V30.1749C12.6642 28.2243 11.5915 27.1293 9 25.1749C6.99879 24.0007 5.66715 23.7918 3 24.1749V52.1749L12.5 61.6749V69.1749H31V53.6749L19 40.6749H13.5ZM13.5 40.6749V47.6753L22.5 56.6753" stroke="#F3FAF7" stroke-width="5" stroke-linecap="round" stroke-linejoin="round"/>
<path d="M34.9999 36.6667C32.9721 36.4167 30.9583 35.8681 28.9583 35.0208C26.9583 34.1736 25.1735 32.9583 23.6041 31.375C22.0346 29.7917 20.7638 27.7917 19.7916 25.375C18.8194 22.9583 18.3333 20.0556 18.3333 16.6667V15H19.9999C21.4166 15 22.8749 15.1806 24.3749 15.5417C25.8749 15.9028 27.2777 16.4445 28.5833 17.1667C28.9166 14.7778 29.6735 12.3264 30.8541 9.81251C32.0346 7.29862 33.4166 5.1389 34.9999 3.33334C36.5833 5.1389 37.9652 7.29862 39.1458 9.81251C40.3263 12.3264 41.0833 14.7778 41.4166 17.1667C42.7221 16.4445 44.1249 15.9028 45.6249 15.5417C47.1249 15.1806 48.5833 15 49.9999 15H51.6666V16.6667C51.6666 20.0556 51.1805 22.9583 50.2083 25.375C49.236 27.7917 47.9652 29.7917 46.3958 31.375C44.8263 32.9583 43.0485 34.1736 41.0624 35.0208C39.0763 35.8681 37.0555 36.4167 34.9999 36.6667ZM34.9166 33.25C34.611 28.6389 33.243 25.1528 30.8124 22.7917C28.3819 20.4306 25.361 18.9722 21.7499 18.4167C22.0555 23.1667 23.4652 26.7083 25.9791 29.0417C28.493 31.375 31.4721 32.7778 34.9166 33.25ZM34.9999 22.6667C35.4166 22.0556 35.9235 21.4236 36.5208 20.7708C37.118 20.1181 37.6944 19.5556 38.2499 19.0833C38.1944 17.5 37.8819 15.8472 37.3124 14.125C36.743 12.4028 35.9721 10.7222 34.9999 9.08334C34.0277 10.7222 33.2569 12.4028 32.6874 14.125C32.118 15.8472 31.8055 17.5 31.7499 19.0833C32.3055 19.5556 32.8888 20.1181 33.4999 20.7708C34.111 21.4236 34.611 22.0556 34.9999 22.6667ZM38.2499 32.5C39.2777 32.1667 40.3471 31.6806 41.4583 31.0417C42.5694 30.4028 43.6041 29.5347 44.5624 28.4375C45.5208 27.3403 46.3402 25.9722 47.0208 24.3333C47.7013 22.6945 48.111 20.7222 48.2499 18.4167C45.6388 18.8056 43.3471 19.6736 41.3749 21.0208C39.4027 22.3681 37.8888 24.0833 36.8333 26.1667C37.1666 27.0556 37.4513 28.0278 37.6874 29.0833C37.9235 30.1389 38.111 31.2778 38.2499 32.5Z" fill="#F3FAF7"/>
</svg>
