<svg width="30" height="30" viewBox="0 0 30 30" fill="none" xmlns="http://www.w3.org/2000/svg">
<path d="M15 30C13.175 29.775 11.3625 29.2815 9.5625 28.5195C7.7625 27.7575 6.1565 26.6635 4.7445 25.2375C3.3325 23.8115 2.1885 22.0115 1.3125 19.8375C0.436502 17.6635 -0.00099829 15.051 1.71038e-06 12V10.5H1.5C2.775 10.5 4.0875 10.6625 5.4375 10.9875C6.7875 11.3125 8.05 11.8 9.225 12.45C9.525 10.3 10.2065 8.0935 11.2695 5.8305C12.3325 3.5675 13.576 1.624 15 0C16.425 1.625 17.669 3.569 18.732 5.832C19.795 8.095 20.476 10.301 20.775 12.45C21.95 11.8 23.2125 11.3125 24.5625 10.9875C25.9125 10.6625 27.225 10.5 28.5 10.5H30V12C30 15.05 29.5625 17.6625 28.6875 19.8375C27.8125 22.0125 26.669 23.8125 25.257 25.2375C23.845 26.6625 22.245 27.7565 20.457 28.5195C18.669 29.2825 16.85 29.776 15 30ZM14.925 26.925C14.65 22.775 13.4185 19.6375 11.2305 17.5125C9.0425 15.3875 6.324 14.075 3.075 13.575C3.35 17.85 4.619 21.0375 6.882 23.1375C9.145 25.2375 11.826 26.5 14.925 26.925ZM15 17.4C15.375 16.85 15.8315 16.2815 16.3695 15.6945C16.9075 15.1075 17.426 14.601 17.925 14.175C17.875 12.75 17.594 11.2625 17.082 9.7125C16.57 8.1625 15.876 6.65 15 5.175C14.125 6.65 13.431 8.1625 12.918 9.7125C12.405 11.2625 12.124 12.75 12.075 14.175C12.575 14.6 13.1 15.1065 13.65 15.6945C14.2 16.2825 14.65 16.851 15 17.4ZM17.925 26.25C18.85 25.95 19.8125 25.5125 20.8125 24.9375C21.8125 24.3625 22.744 23.5815 23.607 22.5945C24.47 21.6075 25.2075 20.376 25.8195 18.9C26.4315 17.424 26.8 15.649 26.925 13.575C24.575 13.925 22.5125 14.7065 20.7375 15.9195C18.9625 17.1325 17.6 18.676 16.65 20.55C16.95 21.35 17.2065 22.225 17.4195 23.175C17.6325 24.125 17.801 25.15 17.925 26.25Z" fill="#F3FAF7"/>
</svg>
