<svg width="16" height="16" viewBox="0 0 16 16" fill="none" xmlns="http://www.w3.org/2000/svg">
<g clip-path="url(#clip0_396_591)">
<path d="M3.654 1.32781C3.59496 1.25187 3.52045 1.18936 3.4354 1.14443C3.35035 1.0995 3.25672 1.07319 3.16072 1.06723C3.06472 1.06127 2.96855 1.07581 2.87859 1.10987C2.78864 1.14394 2.70697 1.19675 2.639 1.26481L1.605 2.29981C1.122 2.78381 0.943998 3.46881 1.155 4.06981C2.03173 6.55692 3.45615 8.81522 5.323 10.6778C7.18559 12.5447 9.44389 13.9691 11.931 14.8458C12.532 15.0568 13.217 14.8788 13.701 14.3958L14.735 13.3618C14.8031 13.2938 14.8559 13.2122 14.8899 13.1222C14.924 13.0323 14.9385 12.9361 14.9326 12.8401C14.9266 12.7441 14.9003 12.6505 14.8554 12.5654C14.8104 12.4804 14.7479 12.4058 14.672 12.3468L12.365 10.5528C12.2838 10.49 12.1894 10.4464 12.089 10.4253C11.9885 10.4042 11.8846 10.406 11.785 10.4308L9.595 10.9778C9.30265 11.0504 8.99653 11.0462 8.70624 10.9658C8.41595 10.8854 8.15134 10.7315 7.938 10.5188L5.482 8.06181C5.26918 7.84857 5.11501 7.584 5.03443 7.29371C4.95384 7.00342 4.94956 6.69724 5.022 6.40481L5.57 4.21481C5.59476 4.11519 5.59664 4.01126 5.57551 3.91082C5.55439 3.81037 5.51079 3.71601 5.448 3.63481L3.654 1.32781ZM1.884 0.510807C2.05899 0.335756 2.26923 0.199937 2.50074 0.112368C2.73225 0.0247988 2.97974 -0.0125165 3.22678 0.00289975C3.47382 0.018316 3.71475 0.0861112 3.93358 0.201783C4.15241 0.317456 4.34412 0.478358 4.496 0.673807L6.29 2.97981C6.619 3.40281 6.735 3.95381 6.605 4.47381L6.058 6.66381C6.02991 6.77725 6.03154 6.89601 6.06272 7.00864C6.0939 7.12127 6.15358 7.22396 6.236 7.30681L8.693 9.76381C8.77595 9.84639 8.87881 9.90617 8.99163 9.93736C9.10445 9.96854 9.22341 9.97007 9.337 9.94181L11.526 9.39481C11.7826 9.33102 12.0504 9.32622 12.3092 9.38078C12.5679 9.43534 12.811 9.54783 13.02 9.70981L15.326 11.5038C16.155 12.1488 16.231 13.3738 15.489 14.1148L14.455 15.1488C13.715 15.8888 12.609 16.2138 11.578 15.8508C8.93867 14.9234 6.54254 13.4126 4.568 11.4308C2.58637 9.45656 1.07555 7.06078 0.147998 4.42181C-0.214002 3.39181 0.110998 2.28481 0.850998 1.54481L1.884 0.510807Z" fill="#D8EFE7"/>
</g>
<defs>
<clipPath id="clip0_396_591">
<rect width="16" height="16" fill="white"/>
</clipPath>
</defs>
</svg>
