<svg width="45" height="45" viewBox="0 0 45 45" fill="none" xmlns="http://www.w3.org/2000/svg">
<path d="M22.5 22.5C25.4837 22.5 28.3452 21.3147 30.455 19.205C32.5647 17.0952 33.75 14.2337 33.75 11.25C33.75 8.26631 32.5647 5.40483 30.455 3.29505C28.3452 1.18526 25.4837 0 22.5 0C19.5163 0 16.6548 1.18526 14.545 3.29505C12.4353 5.40483 11.25 8.26631 11.25 11.25C11.25 14.2337 12.4353 17.0952 14.545 19.205C16.6548 21.3147 19.5163 22.5 22.5 22.5ZM30 11.25C30 13.2391 29.2098 15.1468 27.8033 16.5533C26.3968 17.9598 24.4891 18.75 22.5 18.75C20.5109 18.75 18.6032 17.9598 17.1967 16.5533C15.7902 15.1468 15 13.2391 15 11.25C15 9.26088 15.7902 7.35322 17.1967 5.9467C18.6032 4.54018 20.5109 3.75 22.5 3.75C24.4891 3.75 26.3968 4.54018 27.8033 5.9467C29.2098 7.35322 30 9.26088 30 11.25ZM45 41.25C45 45 41.25 45 41.25 45H3.75C3.75 45 0 45 0 41.25C0 37.5 3.75 26.25 22.5 26.25C41.25 26.25 45 37.5 45 41.25ZM41.25 41.235C41.2463 40.3125 40.6725 37.5375 38.13 34.995C35.685 32.55 31.0837 30 22.5 30C13.9163 30 9.315 32.55 6.87 34.995C4.3275 37.5375 3.7575 40.3125 3.75 41.235H41.25Z" fill="#F3FAF7"/>
</svg>
