<svg width="1728" height="117" viewBox="0 0 1728 117" fill="none" xmlns="http://www.w3.org/2000/svg">
<path fill-rule="evenodd" clip-rule="evenodd" d="M0 82.5882L69.12 75.7059C146.88 68.8235 285.12 55.0588 432 58.5C578.88 61.9412 717.12 82.5882 864 96.3529C1010.88 110.118 1149.12 117 1296 117C1442.88 117 1581.12 110.118 1658.88 106.676L1728 103.235V1.90735e-06H1658.88C1581.12 1.90735e-06 1442.88 1.90735e-06 1296 1.90735e-06C1149.12 1.90735e-06 1010.88 1.90735e-06 864 1.90735e-06C717.12 1.90735e-06 578.88 1.90735e-06 432 1.90735e-06C285.12 1.90735e-06 146.88 1.90735e-06 69.12 1.90735e-06H0V82.5882Z" fill="white"/>
</svg>
